<svg width="276" height="23.999999999999996" xmlns="http://www.w3.org/2000/svg">

 <g>
  <title>background</title>
  <rect fill="none" id="canvas_background" height="402" width="582" y="-1" x="-1"/>
 </g>
 <g>
  <title>Layer 1</title>
  <path id="svg_46" fill="#DBE3E5" d="m0.09998,0.20001l10.20002,0l0,20.89999l-10.20002,0l0,-20.89999z"/>
  <path id="svg_47" fill="#DBE3E5" d="m33,0.20001l10.2,0l0,20.89999l-10.2,0l0,-20.89999z"/>
  <path id="svg_48" fill="#DBE3E5" d="m20.2,4.60004l1.5,-3l1.4,2.9c0.2,0.3 0.3,0.3 0.6,0.1l1.3,-0.6l-0.8,4c-0.2,0.8 0.3,1 0.8,0.5l1.8,-1.90001l0.5,1.10001c0.2,0.3 0.4,0.3 0.7,0.2l1.8,-0.4l-0.6,2.3c-0.1,0.29996 -0.2,0.59996 0.1,0.69996l0.7,0.3l-3.8,3.2c-0.4,0.4 -0.3,0.5 -0.1,1l0.3,1.1l-3.5,-0.6c-0.4,-0.1 -0.7,-0.1 -0.7,0.2l0.1,4l-1.1,0l0.1,-4c0,-0.4 -0.3,-0.4 -1,-0.2l-3.3,0.6l0.4,-1.1c0.1,-0.4 0.2,-0.7 -0.1,-1l-3.9,-3.2l0.7,-0.4c0.2,-0.2 0.2,-0.3 0.1,-0.69996l-0.7,-2.4l1.9,0.4c0.5,0.1 0.7,0 0.8,-0.3l0.5,-1.1l1.8,2.1c0.3,0.4 0.8,0.1 0.6,-0.4l-0.9,-4.3l1.4,0.8c0.3,0.2 0.5,0.3 0.6,0.1z"/>
  <g id="svg_49">
   <path id="svg_22" fill="#DBE3E5" d="m164.799965,0.70001l3.3,8.6l-1.3,0l-0.9,-2.59999l-3.6,0l-1,2.59999l-1.2,0l3.3,-8.6l1.4,0zm0.8,5.1l-1.4,-4l-1.5,4l2.9,0z"/>
   <path id="svg_23" fill="#DBE3E5" d="m169.799965,3.1l0,1c0.4,-0.8 1.1,-1.1 2,-1.1c0.4,0 0.7,0.1 1,0.2c0.3,0.1 0.5,0.3 0.7,0.5c0.2,0.2 0.3,0.4 0.4,0.7c0.1,0.3 0.1,0.6 0.1,0.9l0,4l-1,0l0,-4.2c0,-0.4 -0.1,-0.7 -0.3,-0.9c-0.2,-0.2 -0.5,-0.3 -0.9,-0.3c-0.3,0 -0.6,0 -0.8,0.1c-0.2,0.1 -0.4,0.2 -0.6,0.4c-0.2,0.2 -0.3,0.4 -0.3,0.6c-0.1,0.2 -0.1,0.5 -0.1,0.8l0,3.5l-1,0l0,-6.2l0.8,0z"/>
   <path id="svg_24" fill="#DBE3E5" d="m179.199965,4.20003c-0.3,-0.2 -0.6,-0.3 -1,-0.3c-0.4,0 -0.7,0.1 -0.9,0.2c-0.2,0.1 -0.4,0.3 -0.6,0.5c-0.1,0.2 -0.3,0.5 -0.3,0.8c-0.1,0.3 -0.1,0.6 -0.1,0.9c0,0.3 0,0.6 0.1,0.8c0.1,0.3 0.2,0.5 0.3,0.7c0.1,0.2 0.3,0.4 0.6,0.5c0.2,0.1 0.5,0.2 0.8,0.2c0.5,0 0.9,-0.1 1.2,-0.4c0.3,-0.3 0.5,-0.6 0.5,-1.1l1,0c-0.1,0.8 -0.4,1.4 -0.9,1.8c-0.5,0.4 -1.1,0.59999 -1.9,0.59999c-0.5,0 -0.9,-0.09999 -1.3,-0.19999c-0.4,-0.2 -0.7,-0.4 -0.9,-0.6c-0.2,-0.3 -0.4,-0.6 -0.6,-1c-0.1,-0.4 -0.2,-0.8 -0.2,-1.3c0,-0.5 0.1,-0.9 0.2,-1.3c0.1,-0.4 0.3,-0.8 0.5,-1.1c0.2,-0.3 0.5,-0.5 0.9,-0.7c0.4,-0.2 0.8,-0.3 1.3,-0.3c0.4,0 0.7,0 1,0.1c0.3,0.1 0.6,0.2 0.8,0.4c0.2,0.2 0.4,0.4 0.6,0.7c0.2,0.3 0.2,0.6 0.3,1l-1.1,0c0.1,-0.4 -0.1,-0.7 -0.3,-0.9z"/>
   <path id="svg_25" fill="#DBE3E5" d="m181.999965,1.99999l0,-1.2l1,0l0,1.2l-1,0zm1,1.1l0,6.2l-1,0l0,-6.2l1,0z"/>
   <path id="svg_26" fill="#DBE3E5" d="m188.999865,8.9c-0.5,0.4 -1,0.5 -1.7,0.5c-0.5,0 -0.9,-0.1 -1.3,-0.2c-0.4,-0.2 -0.7,-0.4 -0.9,-0.7c-0.2,-0.3 -0.4,-0.6 -0.6,-1c-0.1,-0.4 -0.2,-0.8 -0.2,-1.3c0,-0.5 0.1,-0.9 0.2,-1.3c0.1,-0.4 0.3,-0.7 0.6,-1c0.3,-0.3 0.6,-0.5 0.9,-0.7c0.4,-0.2 0.7,-0.2 1.2,-0.2c0.6,0 1,0.1 1.4,0.3c0.4,0.2 0.7,0.5 0.9,0.9c0.2,0.4 0.4,0.7 0.5,1.1c0.1,0.4 0.1,0.8 0.1,1.2l-4.6,0c0,0.3 0,0.5 0.1,0.8c0.1,0.2 0.2,0.5 0.3,0.7c0.2,0.2 0.4,0.3 0.6,0.5c0.2,0.1 0.5,0.2 0.9,0.2c0.4,0 0.8,-0.1 1.1,-0.3c0.3,-0.2 0.5,-0.5 0.5,-0.9l1,0c-0.3,0.5 -0.6,1.1 -1,1.4zm-0.3,-4c-0.1,-0.2 -0.2,-0.4 -0.4,-0.6c-0.2,-0.2 -0.3,-0.3 -0.6,-0.4c-0.2,-0.1 -0.4,-0.1 -0.7,-0.1c-0.3,0 -0.5,0 -0.7,0.1c-0.2,0.1 -0.4,0.2 -0.5,0.4c-0.2,0.2 -0.3,0.3 -0.4,0.6c-0.1,0.2 -0.1,0.4 -0.2,0.7l3.6,0c0.1,-0.2 0,-0.5 -0.1,-0.7z"/>
   <path id="svg_27" fill="#DBE3E5" d="m191.999965,3.1l0,1c0.4,-0.8 1.1,-1.1 2,-1.1c0.4,0 0.7,0.1 1,0.2c0.3,0.1 0.5,0.3 0.7,0.5c0.2,0.2 0.3,0.4 0.4,0.7c0.1,0.3 0.1,0.6 0.1,0.9l0,4l-1,0l0,-4.2c0,-0.4 -0.1,-0.7 -0.3,-0.9c-0.2,-0.2 -0.5,-0.3 -0.9,-0.3c-0.3,0 -0.6,0 -0.8,0.1c-0.2,0.1 -0.4,0.2 -0.6,0.4c-0.2,0.2 -0.3,0.4 -0.3,0.6c-0.2,0.3 -0.3,0.5 -0.3,0.8l0,3.5l-1,0l0,-6.2l1,0z"/>
   <path id="svg_28" fill="#DBE3E5" d="m198.499965,7.90001c0.1,0.2 0.2,0.3 0.4,0.4c0.2,0.1 0.3,0.20001 0.5,0.20001c0.2,0 0.4,0.09999 0.6,0.09999c0.2,0 0.3,0 0.5,0c0.2,0 0.3,-0.09999 0.5,-0.09999c0.1,-0.1 0.3,-0.2 0.4,-0.3c0.1,-0.1 0.1,-0.3 0.1,-0.5c0,-0.3 -0.1,-0.50001 -0.3,-0.60001c-0.2,-0.1 -0.5,-0.2 -0.8,-0.3c-0.3,-0.1 -0.6,-0.2 -1,-0.2c-0.4,-0.1 -0.7,-0.2 -1,-0.3c-0.3,-0.1 -0.6,-0.3 -0.8,-0.5c-0.2,-0.2 -0.3,-0.49999 -0.3,-0.89999c0,-0.3 0.1,-0.60001 0.2,-0.80001c0.1,-0.2 0.3,-0.4 0.5,-0.5c0.2,-0.1 0.5,-0.2 0.7,-0.3c0.3,-0.1 0.6,-0.1 0.8,-0.1c0.4,0 0.7,0 1,0.1c0.3,0.1 0.6,0.2 0.8,0.3c0.2,0.1 0.4,0.3 0.5,0.6c0.1,0.3 0.2,0.6 0.2,0.9l-1,0c0,-0.2 -0.1,-0.4 -0.2,-0.5c-0.1,-0.1 -0.2,-0.2 -0.3,-0.3c-0.1,-0.1 -0.3,-0.1 -0.5,-0.2c-0.2,0 -0.3,-0.09999 -0.5,-0.09999c-0.2,0 -0.3,0 -0.5,0c-0.2,0 -0.3,0.09999 -0.4,0.09999c-0.1,0.1 -0.2,0.1 -0.3,0.2c-0.1,0.1 -0.1,0.2 -0.1,0.4c0,0.2 0.1,0.3 0.2,0.4c0.1,0.1 0.3,0.20001 0.5,0.30001c0.2,0.1 0.4,0.09999 0.6,0.19999c0.2,0.1 0.5,0.1 0.7,0.2c0.3,0.1 0.5,0.10001 0.8,0.20001c0.2,0.1 0.5,0.19999 0.6,0.29999c0.2,0.1 0.3,0.3 0.5,0.5c0.1,0.2 0.2,0.40001 0.2,0.70001c0,0.4 -0.1,0.69999 -0.2,0.89999c-0.2,0.2 -0.4,0.40001 -0.6,0.60001c-0.3,0.2 -0.5,0.29999 -0.9,0.29999c-0.3,0.1 -0.6,0.1 -0.9,0.1c-0.3,0 -0.7,0 -1,-0.1c-0.3,-0.1 -0.6,-0.2 -0.8,-0.4c-0.2,-0.2 -0.4,-0.39999 -0.6,-0.69999c-0.1,-0.3 -0.2,-0.6 -0.2,-1l1,0c0.2,0.4 0.3,0.59999 0.4,0.69999z"/>
   <path id="svg_29" fill="#DBE3E5" d="m212.399965,1.9c-0.4,-0.3 -1,-0.5 -1.6,-0.5c-0.5,0 -1,0.1 -1.3,0.3c-0.4,0.2 -0.7,0.5 -0.9,0.8c-0.2,0.3 -0.4,0.7 -0.5,1.1c-0.1,0.4 -0.2,0.8 -0.2,1.3c0,0.5 0.1,0.9 0.2,1.4c0.1,0.4 0.3,0.8 0.5,1.1c0.2,0.3 0.5,0.6 0.9,0.8c0.4,0.2 0.8,0.3 1.3,0.3c0.4,0 0.7,-0.1 1,-0.2c0.3,-0.1 0.5,-0.3 0.8,-0.5c0.2,-0.2 0.4,-0.5 0.5,-0.8c0.1,-0.3 0.2,-0.6 0.2,-1l1.1,0c-0.1,1.1 -0.5,1.9 -1.1,2.5c-0.6,0.6 -1.5,0.9 -2.6,0.9c-0.7,0 -1.2,-0.1 -1.7,-0.3c-0.5,-0.2 -0.9,-0.5 -1.2,-0.9c-0.3,-0.4 -0.6,-0.9 -0.7,-1.4c-0.2,-0.5 -0.2,-1.1 -0.2,-1.7c0,-0.6 0.1,-1.2 0.3,-1.8c0.2,-0.5 0.4,-1 0.8,-1.4c0.3,-0.4 0.8,-0.7 1.3,-1c0.5,-0.2 1.1,-0.4 1.7,-0.4c0.4,0 0.9,0.1 1.3,0.2c0.4,0.1 0.8,0.3 1.1,0.5c0.3,0.2 0.6,0.5 0.8,0.9c0.2,0.3 0.3,0.8 0.4,1.2l-1.1,0c-0.4,-0.6 -0.7,-1.1 -1.1,-1.4z"/>
   <path id="svg_30" fill="#DBE3E5" d="m215.599965,4.90003c0.1,-0.4 0.3,-0.7 0.6,-1c0.3,-0.3 0.6,-0.5 0.9,-0.7c0.4,-0.2 0.8,-0.3 1.3,-0.3c0.5,0 0.9,0.1 1.3,0.3c0.4,0.2 0.7,0.4 0.9,0.7c0.3,0.3 0.4,0.6 0.6,1c0.1,0.4 0.2,0.8 0.2,1.3c0,0.5 -0.1,0.9 -0.2,1.3c-0.1,0.4 -0.3,0.7 -0.6,1c-0.3,0.3 -0.6,0.5 -0.9,0.7c-0.4,0.2 -0.8,0.19999 -1.3,0.19999c-0.5,0 -0.9,-0.09999 -1.3,-0.19999c-0.4,-0.2 -0.7,-0.4 -0.9,-0.7c-0.3,-0.3 -0.4,-0.6 -0.6,-1c-0.1,-0.4 -0.2,-0.8 -0.2,-1.3c0,-0.4 0,-0.9 0.2,-1.3zm1,2.3c0.1,0.3 0.2,0.49999 0.4,0.69999c0.2,0.2 0.4,0.30001 0.6,0.40001c0.2,0.1 0.5,0.2 0.7,0.2c0.3,0 0.5,-0.1 0.7,-0.2c0.2,-0.1 0.4,-0.30001 0.6,-0.40001c0.2,-0.2 0.3,-0.39999 0.4,-0.69999c0.1,-0.3 0.1,-0.6 0.1,-1c0,-0.4 0,-0.7 -0.1,-1c-0.1,-0.3 -0.2,-0.5 -0.4,-0.7c-0.2,-0.2 -0.4,-0.4 -0.6,-0.5c-0.2,-0.1 -0.5,-0.2 -0.7,-0.2c-0.3,0 -0.5,0.1 -0.7,0.2c-0.2,0.1 -0.4,0.3 -0.6,0.5c-0.2,0.2 -0.3,0.4 -0.4,0.7c-0.1,0.3 -0.2,0.6 -0.2,1c0.1,0.4 0.1,0.7 0.2,1z"/>
   <path id="svg_31" fill="#DBE3E5" d="m223.499965,3.09999l0,0.9c0.5,-0.7 1.1,-1.1 2,-1.1c0.4,0 0.7,0.1 1,0.2c0.3,0.2 0.5,0.4 0.7,0.8c0.2,-0.3 0.5,-0.6 0.8,-0.8c0.3,-0.2 0.7,-0.3 1.1,-0.3c0.3,0 0.6,0 0.8,0.1c0.3,0.1 0.5,0.2 0.6,0.3c0.2,0.1 0.3,0.3 0.4,0.6c0.1,0.2 0.2,0.5 0.2,0.8l0,4.7l-1,0l0,-4.1c0,-0.2 0,-0.4 0,-0.5c0,-0.2 -0.1,-0.3 -0.2,-0.4c-0.1,-0.1 -0.2,-0.2 -0.4,-0.3c-0.2,-0.1 -0.4,-0.1 -0.6,-0.1c-0.5,0 -0.9,0.1 -1.2,0.4c-0.3,0.3 -0.4,0.7 -0.4,1.1l0,3.9l-1,0l0,-4.1c0,-0.2 0,-0.4 -0.1,-0.6c0,-0.2 -0.1,-0.3 -0.2,-0.4c-0.1,-0.1 -0.2,-0.2 -0.4,-0.3c-0.1,-0.1 -0.3,-0.1 -0.6,-0.1c-0.3,0 -0.5,0.1 -0.8,0.2c-0.2,0.1 -0.4,0.3 -0.5,0.4c-0.1,0.2 -0.2,0.3 -0.3,0.5c-0.1,0.2 -0.1,0.3 -0.1,0.4l0,4l-1,0l0,-6.2l1.2,0z"/>
   <path id="svg_32" fill="#DBE3E5" d="m233.899965,0.70001l0,3.20001c0.2,-0.3 0.4,-0.60001 0.8,-0.80001c0.4,-0.2 0.8,-0.19999 1.2,-0.19999c0.5,0 0.9,0.09999 1.2,0.29999c0.4,0.2 0.6,0.40001 0.9,0.70001c0.2,0.3 0.4,0.6 0.5,1c0.1,0.4 0.2,0.79999 0.2,1.19999c0,0.4 -0.1,0.9 -0.2,1.3c-0.1,0.4 -0.3,0.7 -0.5,1c-0.2,0.3 -0.5,0.5 -0.9,0.7c-0.4,0.2 -0.8,0.3 -1.2,0.3c-0.2,0 -0.3,0 -0.5,0c-0.2,0 -0.4,-0.09999 -0.6,-0.19999c-0.2,-0.1 -0.4,-0.20001 -0.5,-0.30001c-0.2,-0.1 -0.3,-0.3 -0.4,-0.5l0,0.9l-1,0l0,-8.6l1,0zm3.6,4.6c-0.1,-0.3 -0.2,-0.5 -0.3,-0.7c-0.2,-0.2 -0.4,-0.4 -0.6,-0.5c-0.2,-0.1 -0.5,-0.19999 -0.9,-0.19999c-0.3,0 -0.6,0.09999 -0.9,0.19999c-0.2,0.1 -0.4,0.3 -0.6,0.5c-0.2,0.2 -0.3,0.5 -0.3,0.7c-0.1,0.3 -0.1,0.6 -0.1,0.9c0,0.3 0,0.6 0.1,0.9c0.1,0.3 0.2,0.5 0.3,0.8c0.2,0.2 0.4,0.4 0.6,0.5c0.2,0.1 0.5,0.2 0.9,0.2c0.4,0 0.6,-0.1 0.9,-0.2c0.2,-0.1 0.4,-0.3 0.6,-0.5c0.1,-0.2 0.2,-0.5 0.3,-0.8c0.1,-0.3 0.1,-0.6 0.1,-0.9c0.1,-0.3 0,-0.6 -0.1,-0.9z"/>
   <path id="svg_33" fill="#DBE3E5" d="m244.699965,9.39998c-0.3,0 -0.5,-0.1 -0.6,-0.2c-0.2,-0.1 -0.2,-0.4 -0.2,-0.7c-0.3,0.3 -0.6,0.6 -1,0.7c-0.4,0.1 -0.8,0.2 -1.2,0.2c-0.3,0 -0.5,0 -0.8,-0.1c-0.2,-0.1 -0.5,-0.2 -0.7,-0.3c-0.2,-0.1 -0.3,-0.3 -0.4,-0.5c-0.1,-0.2 -0.2,-0.5 -0.2,-0.8c0,-0.4 0.1,-0.6 0.2,-0.9c0.1,-0.2 0.3,-0.4 0.5,-0.5c0.2,-0.1 0.4,-0.2 0.7,-0.3c0.3,-0.1 0.5,-0.1 0.8,-0.2c0.3,-0.1 0.5,-0.1 0.8,-0.1c0.3,0 0.5,-0.1 0.7,-0.1c0.2,-0.1 0.3,-0.1 0.5,-0.2c0.1,-0.1 0.2,-0.2 0.2,-0.4c0,-0.2 0,-0.4 -0.1,-0.5c-0.1,-0.1 -0.2,-0.2 -0.3,-0.3c-0.1,-0.1 -0.3,-0.1 -0.4,-0.1c-0.2,0 -0.3,0 -0.5,0c-0.4,0 -0.8,0.1 -1.1,0.2c-0.3,0.2 -0.4,0.5 -0.5,0.9l-1,0c0,-0.4 0.1,-0.7 0.2,-1c0.1,-0.3 0.3,-0.5 0.6,-0.6c0.2,-0.2 0.5,-0.3 0.8,-0.4c0.3,-0.1 0.6,-0.1 1,-0.1c0.3,0 0.6,0 0.8,0.1c0.3,0 0.5,0.1 0.7,0.2c0.2,0.1 0.4,0.3 0.5,0.5c0.1,0.2 0.2,0.5 0.2,0.9l0,3.2c0,0.2 0,0.4 0,0.5c0,0.1 0.1,0.2 0.3,0.2c0.1,0 0.2,0 0.3,-0.1l0,0.7c-0.2,0.1 -0.5,0.1 -0.8,0.1zm-1.4,-3.1c-0.2,0 -0.4,0.1 -0.7,0.1c-0.2,0 -0.5,0.1 -0.7,0.1c-0.2,0 -0.4,0.1 -0.6,0.2c-0.2,0.1 -0.3,0.2 -0.4,0.3c-0.1,0.1 -0.2,0.3 -0.2,0.6c0,0.2 0,0.3 0.1,0.4c0.1,0.1 0.2,0.2 0.3,0.3c0.1,0.1 0.2,0.1 0.4,0.2c0.1,0 0.3,0 0.4,0c0.3,0 0.6,0 0.9,-0.1c0.2,-0.1 0.4,-0.2 0.6,-0.3c0.2,-0.1 0.3,-0.3 0.3,-0.5c0.1,-0.2 0.1,-0.3 0.1,-0.5l0,-1c-0.2,0.1 -0.3,0.2 -0.5,0.2z"/>
   <path id="svg_34" fill="#DBE3E5" d="m248.999965,3.10001l0,0.90001l-1.2,0l0,3.79999c0,0.1 0,0.2 0,0.3c0,0.1 0.1,0.1 0.1,0.2c0.1,0 0.1,0.1 0.2,0.1c0.1,0 0.2,0 0.4,0l0.5,0l0,0.9l-0.8,0c-0.3,0 -0.5,0.00001 -0.7,-0.09999c-0.2,0 -0.3,-0.1 -0.5,-0.2c-0.1,-0.1 -0.2,-0.20001 -0.3,-0.40001c-0.1,-0.2 -0.1,-0.4 -0.1,-0.7l0,-3.89999l-1.1,0l0,-0.90001l1.1,0l0,-1.9l1,0l0,1.9l1.4,0l0,0z"/>
   <path id="svg_35" fill="#DBE3E5" d="m252.799965,3.10001l0,0.90001l-1.2,0l0,3.79999c0,0.1 0,0.2 0,0.3c0,0.1 0.1,0.1 0.1,0.2c0.1,0 0.1,0.1 0.2,0.1c0.1,0 0.2,0 0.4,0l0.5,0l0,0.9l-0.8,0c-0.3,0 -0.5,0.00001 -0.7,-0.09999c-0.2,0 -0.3,-0.1 -0.5,-0.2c-0.1,-0.1 -0.2,-0.20001 -0.3,-0.40001c-0.1,-0.2 -0.1,-0.4 -0.1,-0.7l0,-3.89999l-1.1,0l0,-0.90001l1.1,0l0,-1.9l1,0l0,1.9l1.4,0l0,0z"/>
   <path id="svg_36" fill="#DBE3E5" d="m258.699965,9.39998c-0.3,0 -0.5,-0.1 -0.6,-0.2c-0.2,-0.1 -0.2,-0.4 -0.2,-0.7c-0.3,0.3 -0.6,0.6 -1,0.7c-0.4,0.1 -0.8,0.2 -1.2,0.2c-0.3,0 -0.5,0 -0.8,-0.1c-0.2,-0.1 -0.5,-0.2 -0.7,-0.3c-0.2,-0.1 -0.3,-0.3 -0.4,-0.5c-0.1,-0.2 -0.2,-0.5 -0.2,-0.8c0,-0.4 0.1,-0.6 0.2,-0.9c0.1,-0.2 0.3,-0.4 0.5,-0.5c0.2,-0.1 0.4,-0.2 0.7,-0.3c0.3,-0.1 0.5,-0.1 0.8,-0.2c0.3,-0.1 0.5,-0.1 0.8,-0.1c0.3,0 0.5,-0.1 0.7,-0.1c0.2,-0.1 0.3,-0.1 0.5,-0.2c0.1,-0.1 0.2,-0.2 0.2,-0.4c0,-0.2 0,-0.4 -0.1,-0.5c-0.1,-0.1 -0.2,-0.2 -0.3,-0.3c-0.1,-0.1 -0.3,-0.1 -0.4,-0.1c-0.2,0 -0.3,0 -0.5,0c-0.4,0 -0.8,0.1 -1.1,0.2c-0.3,0.2 -0.4,0.5 -0.5,0.9l-1,0c0,-0.4 0.1,-0.7 0.2,-1c0.1,-0.3 0.3,-0.5 0.6,-0.6c0.2,-0.2 0.5,-0.3 0.8,-0.4c0.3,-0.1 0.6,-0.1 1,-0.1c0.3,0 0.6,0 0.8,0.1c0.3,0 0.5,0.1 0.8,0.2c0.2,0.1 0.4,0.3 0.5,0.5c0.1,0.2 0.2,0.5 0.2,0.9l0,3.2c0,0.2 0,0.4 0,0.5c0,0.1 0.1,0.2 0.3,0.2c0.1,0 0.2,0 0.3,-0.1l0,0.7c-0.3,0.1 -0.6,0.1 -0.9,0.1zm-1.4,-3.1c-0.2,0 -0.4,0.1 -0.7,0.1c-0.2,0 -0.5,0.1 -0.7,0.1c-0.2,0 -0.4,0.1 -0.6,0.2c-0.2,0.1 -0.3,0.2 -0.4,0.3c-0.1,0.1 -0.2,0.3 -0.2,0.6c0,0.2 0,0.3 0.1,0.4c0.1,0.1 0.2,0.2 0.3,0.3c0.1,0.1 0.2,0.1 0.4,0.2c0.1,0 0.3,0 0.4,0c0.3,0 0.6,0 0.9,-0.1c0.2,-0.1 0.4,-0.2 0.6,-0.3c0.2,-0.1 0.3,-0.3 0.3,-0.5c0.1,-0.2 0.1,-0.3 0.1,-0.5l0,-1c-0.2,0.1 -0.3,0.2 -0.5,0.2z"/>
   <path id="svg_37" fill="#DBE3E5" d="m261.299965,3.1l0,1c0.4,-0.8 1.1,-1.1 2,-1.1c0.4,0 0.7,0.1 1,0.2c0.3,0.1 0.5,0.3 0.7,0.5c0.2,0.2 0.3,0.4 0.4,0.7c0.1,0.3 0.1,0.6 0.1,0.9l0,4l-1,0l0,-4.2c0,-0.4 -0.1,-0.7 -0.3,-0.9c-0.2,-0.2 -0.5,-0.3 -0.9,-0.3c-0.3,0 -0.6,0 -0.8,0.1c-0.2,0.1 -0.4,0.2 -0.6,0.4c-0.2,0.2 -0.3,0.4 -0.3,0.6c-0.1,0.2 -0.1,0.5 -0.1,0.8l0,3.5l-1,0l0,-6.2l0.8,0z"/>
   <path id="svg_38" fill="#DBE3E5" d="m269.699965,3.10001l0,0.90001l-1.2,0l0,3.79999c0,0.1 0,0.2 0,0.3c0,0.1 0.1,0.1 0.1,0.2c0.1,0 0.1,0.1 0.2,0.1c0.1,0 0.2,0 0.4,0l0.5,0l0,0.9l-0.8,0c-0.3,0 -0.5,0.00001 -0.7,-0.09999c-0.2,0 -0.3,-0.1 -0.5,-0.2c-0.1,-0.1 -0.2,-0.20001 -0.3,-0.40001c-0.1,-0.2 -0.1,-0.4 -0.1,-0.7l0,-3.89999l-1.1,0l0,-0.90001l1.1,0l0,-1.9l1,0l0,1.9l1.4,0l0,0z"/>
   <path id="svg_39" fill="#DBE3E5" d="m271.599965,7.90001c0.1,0.2 0.2,0.3 0.4,0.4c0.2,0.1 0.3,0.20001 0.5,0.20001c0.2,0 0.4,0.09999 0.6,0.09999c0.2,0 0.3,0 0.5,0c0.2,0 0.3,-0.09999 0.5,-0.09999c0.1,-0.1 0.3,-0.2 0.4,-0.3c0.1,-0.1 0.1,-0.3 0.1,-0.5c0,-0.3 -0.1,-0.50001 -0.3,-0.60001c-0.2,-0.1 -0.5,-0.2 -0.8,-0.3c-0.3,-0.1 -0.6,-0.2 -1,-0.2c-0.4,-0.1 -0.7,-0.2 -1,-0.3c-0.3,-0.1 -0.6,-0.3 -0.8,-0.5c-0.2,-0.2 -0.3,-0.49999 -0.3,-0.89999c0,-0.3 0.1,-0.60001 0.2,-0.80001c0.1,-0.2 0.3,-0.4 0.5,-0.5c0.2,-0.1 0.5,-0.2 0.7,-0.3c0.3,-0.1 0.5,-0.1 0.8,-0.1c0.4,0 0.7,0 1,0.1c0.3,0.1 0.6,0.2 0.8,0.3c0.2,0.1 0.4,0.3 0.5,0.6c0.1,0.3 0.2,0.6 0.2,0.9l-1,0c0,-0.2 -0.1,-0.4 -0.2,-0.5c-0.1,-0.1 -0.2,-0.2 -0.3,-0.3c-0.1,-0.1 -0.3,-0.1 -0.5,-0.2c-0.2,0 -0.3,-0.09999 -0.5,-0.09999c-0.2,0 -0.3,0 -0.5,0c-0.2,0 -0.3,0.09999 -0.4,0.09999c-0.1,0.1 -0.2,0.1 -0.3,0.2c-0.1,0.1 -0.1,0.2 -0.1,0.4c0,0.2 0.1,0.3 0.2,0.4c0.1,0.1 0.3,0.20001 0.5,0.30001c0.2,0.1 0.4,0.09999 0.6,0.19999c0.2,0.1 0.5,0.1 0.7,0.2c0.3,0.1 0.5,0.10001 0.8,0.20001c0.2,0.1 0.5,0.19999 0.6,0.29999c0.2,0.1 0.3,0.3 0.5,0.5c0.1,0.2 0.2,0.40001 0.2,0.70001c0,0.4 -0.1,0.69999 -0.2,0.89999c-0.2,0.2 -0.4,0.40001 -0.6,0.60001c-0.3,0.2 -0.5,0.29999 -0.9,0.29999c-0.3,0.1 -0.6,0.1 -0.9,0.1c-0.3,0 -0.7,0 -1,-0.1c-0.3,-0.1 -0.6,-0.2 -0.8,-0.4c-0.2,-0.2 -0.4,-0.39999 -0.6,-0.69999c-0.1,-0.3 -0.2,-0.6 -0.2,-1l1,0c0.3,0.4 0.3,0.59999 0.4,0.69999z"/>
   <path id="svg_40" fill="#DBE3E5" d="m166.399965,13.89999c-0.4,-0.3 -1,-0.5 -1.6,-0.5c-0.5,0 -1,0.1 -1.3,0.3c-0.4,0.2 -0.7,0.5 -0.9,0.8c-0.2,0.3 -0.4,0.7 -0.5,1.1c-0.1,0.4 -0.2,0.8 -0.2,1.3c0,0.5 0.1,0.9 0.2,1.4c0.1,0.4 0.3,0.8 0.5,1.1c0.2,0.3 0.5,0.6 0.9,0.8c0.4,0.2 0.8,0.3 1.3,0.3c0.4,0 0.7,-0.1 1,-0.2c0.3,-0.1 0.5,-0.3 0.8,-0.5c0.2,-0.2 0.4,-0.5 0.5,-0.8c0.1,-0.3 0.2,-0.6 0.2,-1l1.1,0c-0.1,1.1 -0.5,1.9 -1.1,2.5c-0.6,0.6 -1.5,0.9 -2.6,0.9c-0.7,0 -1.2,-0.1 -1.7,-0.3c-0.5,-0.2 -0.9,-0.5 -1.2,-0.9c-0.3,-0.4 -0.6,-0.9 -0.7,-1.4c-0.2,-0.5 -0.2,-1.1 -0.2,-1.7c0,-0.6 0.1,-1.2 0.3,-1.8c0.2,-0.5 0.4,-1 0.8,-1.4c0.3,-0.4 0.8,-0.7 1.3,-1c0.5,-0.2 1.1,-0.4 1.7,-0.4c0.4,0 0.9,0.1 1.3,0.2c0.4,0.1 0.8,0.3 1.1,0.5c0.3,0.2 0.6,0.5 0.8,0.9c0.2,0.3 0.3,0.8 0.4,1.2l-1.1,0c-0.4,-0.6 -0.7,-1.1 -1.1,-1.4z"/>
   <path id="svg_41" fill="#DBE3E5" d="m174.499965,21.39999c-0.3,0 -0.5,-0.1 -0.6,-0.2c-0.2,-0.1 -0.2,-0.4 -0.2,-0.7c-0.3,0.3 -0.6,0.6 -1,0.7c-0.4,0.1 -0.8,0.2 -1.2,0.2c-0.3,0 -0.5,0 -0.8,-0.1c-0.2,-0.1 -0.5,-0.2 -0.7,-0.3c-0.2,-0.1 -0.3,-0.3 -0.4,-0.5c-0.1,-0.2 -0.2,-0.5 -0.2,-0.8c0,-0.4 0.1,-0.6 0.2,-0.9c0.1,-0.2 0.3,-0.4 0.5,-0.5c0.2,-0.1 0.4,-0.2 0.7,-0.3c0.3,-0.1 0.5,-0.1 0.8,-0.2c0.3,-0.1 0.5,-0.1 0.8,-0.1c0.3,0 0.5,-0.1 0.7,-0.1c0.2,-0.1 0.3,-0.1 0.5,-0.2c0.1,-0.1 0.2,-0.2 0.2,-0.4c0,-0.2 0,-0.4 -0.1,-0.5c-0.1,-0.1 -0.2,-0.2 -0.3,-0.3c-0.1,-0.1 -0.3,-0.1 -0.4,-0.1c-0.1,0 -0.3,0 -0.5,0c-0.4,0 -0.8,0.1 -1.1,0.2c-0.3,0.2 -0.4,0.5 -0.5,0.9l-1,0c0,-0.4 0.1,-0.7 0.2,-1c0.1,-0.3 0.3,-0.5 0.6,-0.6c0.2,-0.2 0.5,-0.3 0.8,-0.4c0.3,-0.1 0.6,-0.1 1,-0.1c0.3,0 0.6,0 0.8,0.1c0.3,0 0.5,0.1 0.7,0.2c0.2,0.1 0.4,0.3 0.5,0.5c0.1,0.2 0.2,0.5 0.2,0.9l0,3.2c0,0.2 0,0.4 0,0.5c0,0.1 0.1,0.2 0.3,0.2c0.1,0 0.2,0 0.3,-0.1l0,0.7c-0.3,0.1 -0.5,0.1 -0.8,0.1zm-1.5,-3.1c-0.2,0 -0.4,0.1 -0.6,0.1c-0.2,0 -0.5,0.1 -0.7,0.1c-0.2,0 -0.4,0.1 -0.6,0.2c-0.2,0.1 -0.3,0.2 -0.4,0.3c-0.1,0.1 -0.2,0.3 -0.2,0.6c0,0.2 0,0.3 0.1,0.4c0.1,0.1 0.2,0.2 0.3,0.3c0.1,0.1 0.2,0.1 0.4,0.2c0.1,0 0.3,0 0.4,0c0.3,0 0.6,0 0.9,-0.1c0.2,-0.1 0.4,-0.2 0.6,-0.3c0.2,-0.1 0.3,-0.3 0.3,-0.5c0.1,-0.2 0.1,-0.3 0.1,-0.5l0,-1c-0.2,0.1 -0.4,0.2 -0.6,0.2z"/>
   <path id="svg_42" fill="#DBE3E5" d="m177.099865,15.09999l0,1c0.4,-0.8 1.1,-1.1 2,-1.1c0.4,0 0.7,0.1 1,0.2c0.3,0.1 0.5,0.3 0.7,0.5c0.2,0.2 0.3,0.4 0.4,0.7c0.1,0.3 0.1,0.6 0.1,0.9l0,4l-1,0l0,-4.2c0,-0.4 -0.1,-0.7 -0.3,-0.9c-0.2,-0.2 -0.5,-0.3 -0.9,-0.3c-0.3,0 -0.6,0 -0.8,0.1c-0.2,0.1 -0.4,0.2 -0.6,0.4c-0.2,0.2 -0.3,0.4 -0.3,0.6c-0.1,0.2 -0.1,0.5 -0.1,0.8l0,3.5l-1,0l0,-6.2l0.8,0z"/>
   <path id="svg_43" fill="#DBE3E5" d="m187.599965,21.39999c-0.3,0 -0.5,-0.1 -0.6,-0.2c-0.2,-0.1 -0.2,-0.4 -0.2,-0.7c-0.3,0.3 -0.6,0.6 -1,0.7c-0.4,0.1 -0.8,0.2 -1.2,0.2c-0.3,0 -0.5,0 -0.8,-0.1c-0.2,-0.1 -0.5,-0.2 -0.7,-0.3c-0.2,-0.1 -0.3,-0.3 -0.4,-0.5c-0.1,-0.2 -0.2,-0.5 -0.2,-0.8c0,-0.4 0.1,-0.6 0.2,-0.9c0.1,-0.2 0.3,-0.4 0.5,-0.5c0.2,-0.1 0.4,-0.2 0.7,-0.3c0.3,-0.1 0.5,-0.1 0.8,-0.2c0.3,-0.1 0.5,-0.1 0.8,-0.1c0.3,0 0.5,-0.1 0.7,-0.1c0.2,-0.1 0.3,-0.1 0.5,-0.2c0.1,-0.1 0.2,-0.2 0.2,-0.4c0,-0.2 0,-0.4 -0.1,-0.5c-0.1,-0.1 -0.2,-0.2 -0.3,-0.3c-0.1,-0.1 -0.3,-0.1 -0.4,-0.1c-0.2,0 -0.3,0 -0.5,0c-0.4,0 -0.8,0.1 -1.1,0.2c-0.3,0.2 -0.4,0.5 -0.5,0.9l-1,0c0,-0.4 0.1,-0.7 0.2,-1c0.1,-0.3 0.3,-0.5 0.6,-0.6c0.2,-0.2 0.5,-0.3 0.8,-0.4c0.3,-0.1 0.6,-0.1 1,-0.1c0.3,0 0.6,0 0.8,0.1c0.3,0 0.5,0.1 0.7,0.2c0.2,0.1 0.4,0.3 0.5,0.5c0.1,0.2 0.2,0.5 0.2,0.9l0,3.2c0,0.2 0,0.4 0,0.5c0,0.1 0.1,0.2 0.3,0.2c0.1,0 0.2,0 0.3,-0.1l0,0.7c-0.3,0.1 -0.5,0.1 -0.8,0.1zm-1.5,-3.1c-0.2,0 -0.4,0.1 -0.6,0.1c-0.2,0 -0.5,0.1 -0.7,0.1c-0.2,0 -0.4,0.1 -0.6,0.2c-0.2,0.1 -0.3,0.2 -0.4,0.3c-0.1,0.1 -0.2,0.3 -0.2,0.6c0,0.2 0,0.3 0.1,0.4c0.1,0.1 0.2,0.2 0.3,0.3c0.1,0.1 0.2,0.1 0.4,0.2c0.1,0 0.3,0 0.4,0c0.3,0 0.6,0 0.9,-0.1c0.2,-0.1 0.4,-0.2 0.6,-0.3c0.2,-0.1 0.3,-0.3 0.3,-0.5c0.1,-0.2 0.1,-0.3 0.1,-0.5l0,-1c-0.2,0.1 -0.4,0.2 -0.6,0.2z"/>
   <path id="svg_44" fill="#DBE3E5" d="m193.799965,21.29999l0,-0.8c-0.2,0.3 -0.4,0.6 -0.8,0.7c-0.4,0.2 -0.8,0.2 -1.2,0.2c-0.5,0 -0.9,-0.1 -1.3,-0.3c-0.4,-0.2 -0.7,-0.4 -0.9,-0.7c-0.2,-0.3 -0.4,-0.6 -0.5,-1c-0.1,-0.4 -0.2,-0.8 -0.2,-1.2c0,-0.4 0.1,-0.9 0.2,-1.2c0.1,-0.3 0.3,-0.7 0.5,-1c0.2,-0.3 0.5,-0.5 0.9,-0.7c0.4,-0.2 0.8,-0.3 1.2,-0.3c0.2,0 0.3,0 0.5,0c0.2,0 0.4,0.1 0.6,0.2c0.2,0.1 0.4,0.2 0.5,0.3c0.2,0.1 0.3,0.3 0.4,0.5l0,-3.2l1,0l0,8.5l-0.9,0zm-3.7,-2.2c0.1,0.3 0.2,0.5 0.3,0.7c0.2,0.2 0.4,0.4 0.6,0.5c0.2,0.1 0.5,0.2 0.9,0.2c0.3,0 0.6,-0.1 0.9,-0.2c0.2,-0.1 0.4,-0.3 0.6,-0.5c0.2,-0.2 0.3,-0.5 0.3,-0.7c0.1,-0.3 0.1,-0.6 0.1,-0.9c0,-0.3 0,-0.6 -0.1,-0.9c-0.1,-0.3 -0.2,-0.5 -0.3,-0.8c-0.2,-0.2 -0.4,-0.4 -0.6,-0.5c-0.2,-0.1 -0.5,-0.2 -0.9,-0.2c-0.3,0 -0.6,0.1 -0.9,0.2c-0.2,0.1 -0.4,0.3 -0.6,0.5c-0.1,0.2 -0.2,0.5 -0.3,0.8c-0.1,0.4 -0.1,0.7 -0.1,1c0,0.2 0,0.5 0.1,0.8z"/>
   <path id="svg_45" fill="#DBE3E5" d="m201.099965,21.39999c-0.3,0 -0.5,-0.1 -0.6,-0.2c-0.2,-0.1 -0.2,-0.4 -0.2,-0.7c-0.3,0.3 -0.6,0.6 -1,0.7c-0.4,0.1 -0.8,0.2 -1.2,0.2c-0.3,0 -0.5,0 -0.8,-0.1c-0.2,-0.1 -0.5,-0.2 -0.7,-0.3c-0.2,-0.1 -0.3,-0.3 -0.4,-0.5c-0.1,-0.2 -0.2,-0.5 -0.2,-0.8c0,-0.4 0.1,-0.6 0.2,-0.9c0.1,-0.2 0.3,-0.4 0.5,-0.5c0.2,-0.1 0.4,-0.2 0.7,-0.3c0.3,-0.1 0.5,-0.1 0.8,-0.2c0.3,-0.1 0.5,-0.1 0.8,-0.1c0.3,0 0.5,-0.1 0.7,-0.1c0.2,-0.1 0.3,-0.1 0.5,-0.2c0.1,-0.1 0.2,-0.2 0.2,-0.4c0,-0.2 0,-0.4 -0.1,-0.5c-0.1,-0.1 -0.2,-0.2 -0.3,-0.3c-0.1,-0.1 -0.3,-0.1 -0.4,-0.1c-0.2,0 -0.3,0 -0.5,0c-0.4,0 -0.8,0.1 -1.1,0.2c-0.3,0.2 -0.4,0.5 -0.5,0.9l-1,0c0,-0.4 0.1,-0.7 0.2,-1c0.1,-0.3 0.3,-0.5 0.6,-0.6c0.2,-0.2 0.5,-0.3 0.8,-0.4c0.3,-0.1 0.6,-0.1 1,-0.1c0.3,0 0.6,0 0.8,0.1c0.3,0 0.5,0.1 0.7,0.2c0.2,0.1 0.4,0.3 0.5,0.5c0.1,0.2 0.2,0.5 0.2,0.9l0,3.2c0,0.2 0,0.4 0,0.5c0,0.1 0.1,0.2 0.3,0.2c0.1,0 0.2,0 0.3,-0.1l0,0.7c-0.2,0.1 -0.5,0.1 -0.8,0.1zm-1.4,-3.1c-0.2,0 -0.4,0.1 -0.6,0.1c-0.2,0 -0.5,0.1 -0.7,0.1c-0.2,0 -0.4,0.1 -0.6,0.2c-0.2,0.1 -0.3,0.2 -0.4,0.3c-0.1,0.1 -0.2,0.3 -0.2,0.6c0,0.2 0,0.3 0.1,0.4c0.1,0.1 0.2,0.2 0.3,0.3c0.1,0.1 0.2,0.1 0.4,0.2c0.1,0 0.3,0 0.4,0c0.3,0 0.6,0 0.9,-0.1c0.2,-0.1 0.4,-0.2 0.6,-0.3c0.2,-0.1 0.3,-0.3 0.3,-0.5c0.1,-0.2 0.1,-0.3 0.1,-0.5l0,-1c-0.2,0.1 -0.4,0.2 -0.6,0.2z"/>
  </g>
  <g id="svg_50">
   <path id="svg_1" fill="#DBE3E5" d="m63.524859,9.1l-3,-8.6l1.2,0l2.4,7.4l2.5,-7.4l1.2,0l-3,8.6l-1.3,0z"/>
   <path id="svg_2" fill="#DBE3E5" d="m72.324859,8.69999c-0.5,0.4 -1,0.5 -1.7,0.5c-0.5,0 -0.9,-0.1 -1.3,-0.2c-0.4,-0.2 -0.7,-0.4 -0.9,-0.7c-0.2,-0.3 -0.4,-0.6 -0.6,-1c-0.1,-0.4 -0.2,-0.8 -0.2,-1.3c0,-0.5 0.1,-0.9 0.2,-1.3c0.1,-0.4 0.3,-0.7 0.6,-1c0.3,-0.3 0.6,-0.5 0.9,-0.7c0.4,-0.2 0.7,-0.2 1.2,-0.2c0.6,0 1,0.1 1.4,0.3c0.4,0.2 0.7,0.5 0.9,0.9c0.2,0.4 0.4,0.7 0.5,1.1c0.1,0.4 0.1,0.8 0.1,1.2l-4.6,0c0,0.3 0,0.5 0.1,0.8c0.1,0.2 0.2,0.5 0.3,0.7c0.2,0.2 0.4,0.3 0.6,0.5c0.2,0.1 0.5,0.2 0.9,0.2c0.4,0 0.8,-0.1 1.1,-0.3c0.3,-0.2 0.5,-0.5 0.5,-0.9l1,0c-0.2,0.5 -0.5,1.1 -1,1.4zm-0.2,-4c-0.1,-0.2 -0.2,-0.4 -0.4,-0.6c-0.2,-0.2 -0.3,-0.3 -0.6,-0.4c-0.2,-0.1 -0.4,-0.1 -0.7,-0.1c-0.3,0 -0.5,0 -0.7,0.1c-0.2,0.1 -0.4,0.2 -0.5,0.4c-0.2,0.2 -0.3,0.3 -0.4,0.6c-0.1,0.2 -0.1,0.4 -0.2,0.7l3.6,0c0,-0.2 -0.1,-0.5 -0.1,-0.7z"/>
   <path id="svg_3" fill="#DBE3E5" d="m77.024859,2.9l0,0.90001l-1.2,0l0,3.79999c0,0.1 0,0.2 0,0.3c0,0.1 0.1,0.1 0.1,0.2c0.1,0 0.1,0.1 0.2,0.1c0.1,0 0.2,0 0.4,0l0.5,0l0,0.9l-0.8,0c-0.3,0 -0.5,0.00001 -0.7,-0.09999c-0.2,0 -0.3,-0.1 -0.5,-0.2c-0.1,-0.1 -0.2,-0.20001 -0.3,-0.40001c-0.1,-0.2 -0.1,-0.4 -0.1,-0.7l0,-3.89999l-1.1,0l0,-0.90001l1.1,0l0,-1.9l1,0l0,1.9l1.4,0l0,0z"/>
   <path id="svg_4" fill="#DBE3E5" d="m82.524859,8.69999c-0.5,0.4 -1,0.5 -1.7,0.5c-0.5,0 -0.9,-0.1 -1.3,-0.2c-0.4,-0.2 -0.7,-0.4 -0.9,-0.7c-0.2,-0.3 -0.4,-0.6 -0.6,-1c-0.1,-0.4 -0.2,-0.8 -0.2,-1.3c0,-0.5 0.1,-0.9 0.2,-1.3c0.1,-0.4 0.3,-0.7 0.6,-1c0.3,-0.3 0.6,-0.5 0.9,-0.7c0.4,-0.2 0.7,-0.2 1.2,-0.2c0.6,0 1,0.1 1.4,0.3c0.4,0.2 0.7,0.5 0.9,0.9c0.2,0.4 0.4,0.7 0.5,1.1c0.1,0.4 0.1,0.8 0.1,1.2l-4.6,0c0,0.3 0,0.5 0.1,0.8c0.1,0.2 0.2,0.5 0.3,0.7c0.2,0.2 0.4,0.3 0.6,0.5c0.2,0.1 0.5,0.2 0.9,0.2c0.4,0 0.8,-0.1 1.1,-0.3c0.3,-0.2 0.5,-0.5 0.5,-0.9l1,0c-0.2,0.5 -0.5,1.1 -1,1.4zm-0.2,-4c-0.1,-0.2 -0.2,-0.4 -0.4,-0.6c-0.2,-0.2 -0.3,-0.3 -0.6,-0.4c-0.2,-0.1 -0.4,-0.1 -0.7,-0.1c-0.3,0 -0.5,0 -0.7,0.1c-0.2,0.1 -0.4,0.2 -0.5,0.4c-0.2,0.2 -0.3,0.3 -0.4,0.6c-0.1,0.2 -0.1,0.4 -0.2,0.7l3.6,0c0,-0.2 0,-0.5 -0.1,-0.7z"/>
   <path id="svg_5" fill="#DBE3E5" d="m85.524859,2.89998l0,1.3c0.2,-0.5 0.6,-0.9 0.9,-1.1c0.4,-0.2 0.8,-0.4 1.4,-0.3l0,1.1c-0.4,0 -0.8,0.1 -1,0.2c-0.3,0.1 -0.5,0.3 -0.7,0.5c-0.2,0.2 -0.3,0.5 -0.4,0.8c-0.1,0.3 -0.1,0.7 -0.1,1.1l0,2.6l-1,0l0,-6.2l0.9,0z"/>
   <path id="svg_6" fill="#DBE3E5" d="m93.324859,9.20003c-0.3,0 -0.5,-0.1 -0.6,-0.2c-0.2,-0.1 -0.2,-0.4 -0.2,-0.7c-0.3,0.3 -0.6,0.6 -1,0.7c-0.4,0.1 -0.8,0.2 -1.2,0.2c-0.3,0 -0.5,0 -0.8,-0.1c-0.2,-0.1 -0.5,-0.2 -0.7,-0.3c-0.2,-0.1 -0.3,-0.3 -0.4,-0.5c-0.1,-0.2 -0.2,-0.5 -0.2,-0.8c0,-0.4 0.1,-0.6 0.2,-0.9c0.1,-0.2 0.3,-0.4 0.5,-0.5c0.2,-0.1 0.4,-0.2 0.7,-0.3c0.3,-0.1 0.5,-0.1 0.8,-0.2c0.3,-0.1 0.5,-0.1 0.8,-0.1c0.3,0 0.5,-0.1 0.7,-0.1c0.2,-0.1 0.3,-0.1 0.5,-0.2c0.1,-0.1 0.2,-0.2 0.2,-0.4c0,-0.2 0,-0.4 -0.1,-0.5c-0.1,-0.1 -0.2,-0.2 -0.3,-0.3c-0.1,-0.1 -0.3,-0.1 -0.4,-0.1c-0.2,0 -0.3,0 -0.5,0c-0.4,0 -0.8,0.1 -1.1,0.2c-0.3,0.2 -0.4,0.5 -0.5,0.9l-1,0c0,-0.4 0.1,-0.7 0.2,-1c0.1,-0.3 0.3,-0.5 0.6,-0.6c0.2,-0.2 0.5,-0.3 0.8,-0.4c0.3,-0.1 0.6,-0.1 1,-0.1c0.3,0 0.6,0 0.8,0.1c0.3,0 0.5,0.1 0.7,0.2c0.2,0.1 0.4,0.3 0.5,0.5c0.1,0.2 0.2,0.5 0.2,0.9l0,3.2c0,0.2 0,0.4 0,0.5c0,0.1 0.1,0.2 0.3,0.2c0.1,0 0.2,0 0.3,-0.1l0,0.7c-0.2,0.1 -0.5,0.1 -0.8,0.1zm-1.4,-3.1c-0.2,0 -0.4,0.1 -0.6,0.1c-0.2,0 -0.5,0.1 -0.7,0.1c-0.2,0 -0.4,0.1 -0.6,0.2c-0.2,0.1 -0.3,0.2 -0.4,0.3c-0.1,0.1 -0.2,0.3 -0.2,0.6c0,0.2 0,0.3 0.1,0.4c0.1,0.1 0.2,0.2 0.3,0.3c0.1,0.1 0.2,0.1 0.4,0.2c0.1,0 0.3,0 0.4,0c0.3,0 0.6,0 0.9,-0.1c0.2,-0.1 0.4,-0.2 0.6,-0.3c0.2,-0.1 0.3,-0.3 0.3,-0.5c0.1,-0.2 0.1,-0.3 0.1,-0.5l0,-1c-0.2,0.1 -0.4,0.2 -0.6,0.2z"/>
   <path id="svg_7" fill="#DBE3E5" d="m96.024859,2.89999l0,1c0.4,-0.8 1.1,-1.1 2,-1.1c0.4,0 0.7,0.1 1,0.2c0.3,0.1 0.5,0.3 0.7,0.5c0.2,0.2 0.3,0.4 0.4,0.7c0.1,0.3 0.1,0.6 0.1,0.9l0,4l-1,0l0,-4.2c0,-0.4 -0.1,-0.7 -0.3,-0.9c-0.2,-0.2 -0.5,-0.3 -0.9,-0.3c-0.3,0 -0.6,0 -0.8,0.1c-0.2,0.1 -0.4,0.2 -0.6,0.4c-0.2,0.2 -0.3,0.4 -0.3,0.6c-0.1,0.2 -0.1,0.5 -0.1,0.8l0,3.5l-1,0l0,-6.2l0.8,0z"/>
   <path id="svg_8" fill="#DBE3E5" d="m102.524859,7.7c0.1,0.2 0.2,0.3 0.4,0.4c0.2,0.1 0.3,0.20001 0.5,0.20001c0.2,0 0.4,0.09999 0.6,0.09999c0.2,0 0.3,0 0.5,0c0.2,0 0.3,-0.09999 0.5,-0.09999c0.1,-0.1 0.3,-0.2 0.4,-0.3c0.1,-0.1 0.1,-0.3 0.1,-0.5c0,-0.3 -0.1,-0.50001 -0.3,-0.60001c-0.2,-0.1 -0.5,-0.2 -0.8,-0.3c-0.3,-0.1 -0.6,-0.2 -1,-0.2c-0.4,-0.1 -0.7,-0.2 -1,-0.3c-0.3,-0.1 -0.6,-0.3 -0.8,-0.5c-0.2,-0.2 -0.3,-0.49999 -0.3,-0.89999c0,-0.3 0.1,-0.60001 0.2,-0.80001c0.1,-0.2 0.3,-0.4 0.5,-0.5c0.2,-0.1 0.5,-0.2 0.7,-0.3c0.3,-0.1 0.5,-0.1 0.8,-0.1c0.4,0 0.7,0 1,0.1c0.3,0.1 0.6,0.2 0.8,0.3c0.2,0.1 0.4,0.3 0.5,0.6c0.1,0.3 0.2,0.6 0.2,0.9l-1,0c0,-0.2 -0.1,-0.4 -0.2,-0.5c-0.1,-0.1 -0.2,-0.2 -0.3,-0.3c-0.1,-0.1 -0.3,-0.1 -0.5,-0.2c-0.2,0 -0.3,-0.09999 -0.5,-0.09999c-0.2,0 -0.3,0 -0.5,0c-0.2,0 -0.3,0.09999 -0.4,0.09999c-0.1,0.1 -0.2,0.1 -0.3,0.2c-0.1,0.1 -0.1,0.2 -0.1,0.4c0,0.2 0.1,0.3 0.2,0.4c0.1,0.1 0.3,0.20001 0.5,0.30001c0.2,0.1 0.4,0.09999 0.6,0.19999c0.2,0.1 0.5,0.1 0.7,0.2c0.3,0.1 0.5,0.10001 0.8,0.20001c0.2,0.1 0.5,0.19999 0.6,0.29999c0.2,0.1 0.3,0.3 0.5,0.5c0.1,0.2 0.2,0.40001 0.2,0.70001c0,0.4 -0.1,0.69999 -0.2,0.89999c-0.2,0.2 -0.4,0.40001 -0.6,0.60001c-0.3,0.2 -0.5,0.29999 -0.9,0.29999c-0.3,0.1 -0.6,0.1 -0.9,0.1c-0.3,0 -0.7,0 -1,-0.1c-0.3,-0.1 -0.6,-0.2 -0.8,-0.4c-0.2,-0.2 -0.4,-0.39999 -0.6,-0.69999c-0.1,-0.3 -0.2,-0.6 -0.2,-1l1,0c0.2,0.4 0.3,0.59999 0.4,0.69999z"/>
   <path id="svg_9" fill="#DBE3E5" d="m114.824859,0.5l3.3,8.6l-1.3,0l-0.9,-2.59999l-3.6,0l-1,2.59999l-1.1,0l3.3,-8.6l1.3,0zm0.8,5.1l-1.4,-4l-1.5,4l2.9,0z"/>
   <path id="svg_10" fill="#DBE3E5" d="m118.224859,3.80001l0,-0.90001l1,0l0,-0.9c0,-0.5 0.1,-0.9 0.4,-1.1c0.3,-0.3 0.7,-0.4 1.3,-0.4c0.1,0 0.2,0 0.3,0c0.1,0 0.2,0.00001 0.3,0.10001l0,0.89999c-0.1,0 -0.2,-0.1 -0.3,-0.1c-0.1,0 -0.2,0 -0.3,0c-0.2,0 -0.4,0 -0.6,0.1c-0.1,0.1 -0.2,0.3 -0.2,0.6l0,0.9l1.2,0l0,0.9l-1.1,0l0,5.2l-1,0l0,-5.29999l-1,0z"/>
   <path id="svg_11" fill="#DBE3E5" d="m121.524859,3.80001l0,-0.90001l1,0l0,-0.9c0,-0.5 0.1,-0.9 0.4,-1.1c0.3,-0.3 0.7,-0.4 1.3,-0.4c0.1,0 0.2,0 0.3,0c0.1,0 0.2,0.00001 0.3,0.10001l0,0.89999c-0.1,0 -0.2,-0.1 -0.3,-0.1c-0.1,0 -0.2,0 -0.3,0c-0.2,0 -0.4,0 -0.6,0.1c-0.1,0.1 -0.2,0.3 -0.2,0.6l0,0.9l1.2,0l0,0.9l-1.2,0l0,5.2l-1,0l0,-5.29999l-0.9,0z"/>
   <path id="svg_12" fill="#DBE3E5" d="m130.424859,9.20003c-0.3,0 -0.5,-0.1 -0.6,-0.2c-0.2,-0.1 -0.2,-0.4 -0.2,-0.7c-0.3,0.3 -0.6,0.6 -1,0.7c-0.4,0.1 -0.8,0.2 -1.2,0.2c-0.3,0 -0.5,0 -0.8,-0.1c-0.2,-0.1 -0.5,-0.2 -0.7,-0.3c-0.2,-0.1 -0.3,-0.3 -0.4,-0.5c-0.1,-0.2 -0.2,-0.5 -0.2,-0.8c0,-0.4 0.1,-0.6 0.2,-0.9c0.1,-0.2 0.3,-0.4 0.5,-0.5c0.2,-0.1 0.4,-0.2 0.7,-0.3c0.3,-0.1 0.5,-0.1 0.8,-0.2c0.3,-0.1 0.5,-0.1 0.8,-0.1c0.3,0 0.5,-0.1 0.7,-0.1c0.2,-0.1 0.3,-0.1 0.5,-0.2c0.1,-0.1 0.2,-0.2 0.2,-0.4c0,-0.2 0,-0.4 -0.1,-0.5c-0.1,-0.1 -0.2,-0.2 -0.3,-0.3c-0.1,-0.1 -0.3,-0.1 -0.4,-0.1c-0.2,0 -0.3,0 -0.5,0c-0.4,0 -0.8,0.1 -1.1,0.2c-0.3,0.2 -0.4,0.5 -0.5,0.9l-1,0c0,-0.4 0.1,-0.7 0.2,-1c0.1,-0.3 0.3,-0.5 0.6,-0.6c0.2,-0.2 0.5,-0.3 0.8,-0.4c0.3,-0.1 0.6,-0.1 1,-0.1c0.3,0 0.6,0 0.8,0.1c0.3,0 0.5,0.1 0.7,0.2c0.2,0.1 0.4,0.3 0.5,0.5c0.1,0.2 0.2,0.5 0.2,0.9l0,3.2c0,0.2 0,0.4 0,0.5c0,0.1 0.1,0.2 0.3,0.2c0.1,0 0.2,0 0.3,-0.1l0,0.7c-0.2,0.1 -0.4,0.1 -0.8,0.1zm-1.4,-3.1c-0.2,0 -0.4,0.1 -0.7,0.1c-0.2,0 -0.5,0.1 -0.7,0.1c-0.2,0 -0.4,0.1 -0.6,0.2c-0.2,0.1 -0.3,0.2 -0.4,0.3c-0.1,0.1 -0.2,0.3 -0.2,0.6c0,0.2 0,0.3 0.1,0.4c0.1,0.1 0.2,0.2 0.3,0.3c0.1,0.1 0.2,0.1 0.4,0.2c0.1,0 0.3,0 0.4,0c0.3,0 0.6,0 0.9,-0.1c0.2,-0.1 0.4,-0.2 0.6,-0.3c0.2,-0.1 0.3,-0.3 0.3,-0.5c0.1,-0.2 0.1,-0.3 0.1,-0.5l0,-1c-0.1,0.1 -0.3,0.2 -0.5,0.2z"/>
   <path id="svg_13" fill="#DBE3E5" d="m133.224859,1.79998l0,-1.2l-1,0l0,1.2l1,0zm-1,1.1l0,6.2l1,0l0,-6.2l-1,0z"/>
   <path id="svg_14" fill="#DBE3E5" d="m135.724859,2.89998l0,1.3c0.2,-0.5 0.6,-0.9 0.9,-1.1c0.4,-0.2 0.8,-0.4 1.4,-0.3l0,1.1c-0.4,0 -0.8,0.1 -1,0.2c-0.3,0.1 -0.5,0.3 -0.7,0.5c-0.2,0.2 -0.3,0.5 -0.4,0.8c-0.1,0.3 -0.1,0.7 -0.1,1.1l0,2.6l-1,0l0,-6.2l0.9,0z"/>
   <path id="svg_15" fill="#DBE3E5" d="m139.624859,7.7c0.1,0.2 0.2,0.3 0.4,0.4c0.2,0.1 0.3,0.20001 0.5,0.20001c0.2,0 0.4,0.09999 0.6,0.09999c0.2,0 0.3,0 0.5,0c0.2,0 0.3,-0.09999 0.5,-0.09999c0.1,-0.1 0.3,-0.2 0.4,-0.3c0.1,-0.1 0.1,-0.3 0.1,-0.5c0,-0.3 -0.1,-0.50001 -0.3,-0.60001c-0.2,-0.1 -0.5,-0.2 -0.8,-0.3c-0.3,-0.1 -0.6,-0.2 -1,-0.2c-0.4,-0.1 -0.7,-0.2 -1,-0.3c-0.3,-0.1 -0.6,-0.3 -0.8,-0.5c-0.2,-0.2 -0.3,-0.49999 -0.3,-0.89999c0,-0.3 0.1,-0.60001 0.2,-0.80001c0.1,-0.2 0.3,-0.4 0.5,-0.5c0.2,-0.1 0.5,-0.2 0.7,-0.3c0.3,-0.1 0.6,-0.1 0.8,-0.1c0.4,0 0.7,0 1,0.1c0.3,0.1 0.6,0.2 0.8,0.3c0.2,0.1 0.4,0.3 0.5,0.6c0.1,0.3 0.2,0.6 0.2,0.9l-1,0c0,-0.2 -0.1,-0.4 -0.2,-0.5c-0.1,-0.1 -0.2,-0.2 -0.3,-0.3c-0.1,-0.1 -0.3,-0.1 -0.5,-0.2c-0.2,0 -0.3,-0.09999 -0.5,-0.09999c-0.2,0 -0.3,0 -0.5,0c-0.2,0 -0.3,0.09999 -0.4,0.09999c-0.1,0.1 -0.2,0.1 -0.3,0.2c-0.1,0.1 -0.1,0.2 -0.1,0.4c0,0.2 0.1,0.3 0.2,0.4c0.1,0.1 0.3,0.20001 0.5,0.30001c0.2,0.1 0.4,0.09999 0.6,0.19999c0.2,0.1 0.5,0.1 0.7,0.2c0.3,0.1 0.5,0.10001 0.8,0.20001c0.2,0.1 0.5,0.19999 0.6,0.29999c0.2,0.1 0.3,0.3 0.5,0.5c0.1,0.2 0.2,0.40001 0.2,0.70001c0,0.4 -0.1,0.69999 -0.2,0.89999c-0.2,0.2 -0.4,0.40001 -0.6,0.60001c-0.3,0.2 -0.5,0.29999 -0.9,0.29999c-0.3,0.1 -0.6,0.1 -0.9,0.1c-0.3,0 -0.7,0 -1,-0.1c-0.3,-0.1 -0.6,-0.2 -0.8,-0.4c-0.2,-0.2 -0.4,-0.39999 -0.6,-0.69999c-0.1,-0.3 -0.2,-0.6 -0.2,-1l1,0c0.2,0.4 0.3,0.59999 0.4,0.69999z"/>
   <path id="svg_16" fill="#DBE3E5" d="m66.624859,13.69998c-0.4,-0.3 -1,-0.5 -1.6,-0.5c-0.5,0 -1,0.1 -1.3,0.3c-0.4,0.2 -0.7,0.5 -0.9,0.8c-0.2,0.3 -0.4,0.7 -0.5,1.1c-0.1,0.4 -0.2,0.8 -0.2,1.3c0,0.5 0.1,0.9 0.2,1.4c0.1,0.4 0.3,0.8 0.5,1.1c0.2,0.3 0.5,0.6 0.9,0.8c0.4,0.2 0.8,0.3 1.3,0.3c0.4,0 0.7,-0.1 1,-0.2c0.3,-0.1 0.5,-0.3 0.8,-0.5c0.2,-0.2 0.4,-0.5 0.5,-0.8c0.1,-0.3 0.2,-0.6 0.2,-1l1.1,0c-0.1,1.1 -0.5,1.9 -1.1,2.5c-0.6,0.6 -1.5,0.9 -2.6,0.9c-0.7,0 -1.2,-0.1 -1.7,-0.3c-0.5,-0.2 -0.9,-0.5 -1.2,-0.9c-0.3,-0.4 -0.6,-0.9 -0.7,-1.4c-0.2,-0.5 -0.2,-1.1 -0.2,-1.7c0,-0.6 0.1,-1.2 0.3,-1.8c0.2,-0.5 0.4,-1 0.8,-1.4c0.3,-0.4 0.8,-0.7 1.3,-1c0.5,-0.2 1.1,-0.4 1.7,-0.4c0.4,0 0.9,0.1 1.3,0.2c0.4,0.1 0.8,0.3 1.1,0.5c0.3,0.2 0.6,0.5 0.8,0.9c0.2,0.3 0.3,0.8 0.4,1.2l-1.1,0c-0.4,-0.6 -0.7,-1.1 -1.1,-1.4z"/>
   <path id="svg_17" fill="#DBE3E5" d="m74.724859,21.19998c-0.3,0 -0.5,-0.0999 -0.6,-0.1999c-0.2,-0.1 -0.2,-0.4 -0.2,-0.7c-0.3,0.3 -0.6,0.6 -1,0.7c-0.4,0.1 -0.8,0.1999 -1.2,0.1999c-0.3,0 -0.5,0 -0.8,-0.1c-0.2,-0.1 -0.5,-0.1999 -0.7,-0.2999c-0.2,-0.1 -0.3,-0.3 -0.4,-0.5c-0.1,-0.2 -0.2,-0.5 -0.2,-0.8c0,-0.4 0.1,-0.6001 0.2,-0.9001c0.1,-0.2 0.3,-0.4 0.5,-0.5c0.2,-0.1 0.4,-0.1999 0.7,-0.2999c0.3,-0.1 0.5,-0.1001 0.8,-0.2001c0.3,-0.1 0.5,-0.0999 0.8,-0.0999c0.3,0 0.5,-0.1001 0.7,-0.1001c0.2,-0.1 0.3,-0.1 0.5,-0.2c0.1,-0.1 0.2,-0.1999 0.2,-0.3999c0,-0.2 0,-0.4 -0.1,-0.5c-0.1,-0.1 -0.2,-0.2 -0.3,-0.3c-0.1,-0.1 -0.3,-0.1001 -0.4,-0.1001c-0.1,0 -0.3,0 -0.5,0c-0.4,0 -0.8,0.1 -1.1,0.2c-0.3,0.2 -0.4,0.5001 -0.5,0.9001l-1,0c0,-0.4 0.1,-0.7 0.2,-1c0.1,-0.3 0.3,-0.5001 0.6,-0.6001c0.2,-0.2 0.5,-0.2999 0.8,-0.3999c0.3,-0.1 0.6,-0.1001 1,-0.1001c0.3,0 0.6,0.0001 0.8,0.1001c0.3,0 0.5,0.0999 0.7,0.1999c0.2,0.1 0.4,0.3 0.5,0.5c0.1,0.2 0.2,0.5 0.2,0.9l0,3.2001c0,0.2 0,0.4 0,0.5c0,0.1 0.1,0.2 0.3,0.2c0.1,0 0.2,-0.0001 0.3,-0.1001l0,0.7c-0.3,0.1 -0.5,0.1 -0.8,0.1zm-1.5,-3.1c-0.2,0 -0.4,0.1 -0.7,0.1c-0.2,0 -0.5,0.1001 -0.7,0.1001c-0.2,0 -0.4,0.1 -0.6,0.2c-0.2,0.1 -0.3,0.2 -0.4,0.3c-0.1,0.1 -0.2,0.2999 -0.2,0.5999c0,0.2 0,0.3001 0.1,0.4001c0.1,0.1 0.2,0.1999 0.3,0.2999c0.1,0.1 0.2,0.1001 0.4,0.2001c0.1,0 0.3,0 0.4,0c0.3,0 0.6,-0.0001 0.9,-0.1001c0.2,-0.1 0.4,-0.2 0.6,-0.3c0.2,-0.1 0.3,-0.3 0.3,-0.5c0.1,-0.2 0.1,-0.3 0.1,-0.5l0,-1c-0.1,0.1 -0.3,0.2 -0.5,0.2z"/>
   <path id="svg_18" fill="#DBE3E5" d="m77.324859,14.89998l0,1c0.4,-0.8 1.1,-1.1 2,-1.1c0.4,0 0.7,0.1 1,0.2c0.3,0.1 0.5,0.3 0.7,0.5c0.2,0.2 0.3,0.4 0.4,0.7c0.1,0.3 0.1,0.6 0.1,0.9l0,4l-1,0l0,-4.2c0,-0.4 -0.1,-0.7 -0.3,-0.9c-0.2,-0.2 -0.5,-0.3 -0.9,-0.3c-0.3,0 -0.6,0 -0.8,0.1c-0.2,0.1 -0.4,0.2 -0.6,0.4c-0.2,0.2 -0.3,0.4 -0.3,0.6c-0.1,0.2 -0.1,0.5 -0.1,0.8l0,3.5l-1,0l0,-6.2l0.8,0z"/>
   <path id="svg_19" fill="#DBE3E5" d="m87.824859,21.19998c-0.3,0 -0.5,-0.0999 -0.6,-0.1999c-0.2,-0.1 -0.2,-0.4 -0.2,-0.7c-0.3,0.3 -0.6,0.6 -1,0.7c-0.4,0.1 -0.8,0.1999 -1.2,0.1999c-0.3,0 -0.5,0 -0.8,-0.1c-0.2,-0.1 -0.5,-0.1999 -0.7,-0.2999c-0.2,-0.1 -0.3,-0.3 -0.4,-0.5c-0.1,-0.2 -0.2,-0.5 -0.2,-0.8c0,-0.4 0.1,-0.6001 0.2,-0.9001c0.1,-0.2 0.3,-0.4 0.5,-0.5c0.2,-0.1 0.4,-0.1999 0.7,-0.2999c0.3,-0.1 0.5,-0.1001 0.8,-0.2001c0.3,-0.1 0.5,-0.0999 0.8,-0.0999c0.3,0 0.5,-0.1001 0.7,-0.1001c0.2,-0.1 0.3,-0.1 0.5,-0.2c0.1,-0.1 0.2,-0.1999 0.2,-0.3999c0,-0.2 0,-0.4 -0.1,-0.5c-0.1,-0.1 -0.2,-0.2 -0.3,-0.3c-0.1,-0.1 -0.3,-0.1001 -0.4,-0.1001c-0.2,0 -0.3,0 -0.5,0c-0.4,0 -0.8,0.1 -1.1,0.2c-0.3,0.2 -0.4,0.5001 -0.5,0.9001l-1,0c0,-0.4 0.1,-0.7 0.2,-1c0.1,-0.3 0.3,-0.5001 0.6,-0.6001c0.2,-0.2 0.5,-0.2999 0.8,-0.3999c0.3,-0.1 0.6,-0.1001 1,-0.1001c0.3,0 0.6,0.0001 0.8,0.1001c0.3,0 0.5,0.0999 0.8,0.1999c0.2,0.1 0.4,0.3 0.5,0.5c0.1,0.2 0.2,0.5 0.2,0.9l0,3.2001c0,0.2 0,0.4 0,0.5c0,0.1 0.1,0.2 0.3,0.2c0.1,0 0.2,-0.0001 0.3,-0.1001l0,0.7c-0.4,0.1 -0.6,0.1 -0.9,0.1zm-1.5,-3.1c-0.2,0 -0.4,0.1 -0.7,0.1c-0.2,0 -0.5,0.1001 -0.7,0.1001c-0.2,0 -0.4,0.1 -0.6,0.2c-0.2,0.1 -0.3,0.2 -0.4,0.3c-0.1,0.1 -0.2,0.2999 -0.2,0.5999c0,0.2 0,0.3001 0.1,0.4001c0.1,0.1 0.2,0.1999 0.3,0.2999c0.1,0.1 0.2,0.1001 0.4,0.2001c0.1,0 0.3,0 0.4,0c0.3,0 0.6,-0.0001 0.9,-0.1001c0.2,-0.1 0.4,-0.2 0.6,-0.3c0.2,-0.1 0.3,-0.3 0.3,-0.5c0.1,-0.2 0.1,-0.3 0.1,-0.5l0,-1c-0.1,0.1 -0.3,0.2 -0.5,0.2z"/>
   <path id="svg_20" fill="#DBE3E5" d="m94.024859,21.09998l0,-0.8c-0.2,0.3 -0.4,0.6 -0.8,0.7c-0.4,0.2 -0.8,0.2 -1.2,0.2c-0.5,0 -0.9,-0.1 -1.3,-0.3c-0.4,-0.2 -0.7,-0.4 -0.9,-0.7c-0.2,-0.3 -0.4,-0.6 -0.5,-1c-0.1,-0.4 -0.2,-0.8 -0.2,-1.2c0,-0.4 0.1,-0.9 0.2,-1.2c0.1,-0.4 0.3,-0.7 0.5,-1c0.2,-0.3 0.5,-0.5 0.9,-0.7c0.4,-0.2 0.8,-0.3 1.2,-0.3c0.2,0 0.3,0 0.5,0c0.2,0 0.4,0.1 0.6,0.2c0.2,0.1 0.4,0.2 0.5,0.3c0.2,0.1 0.3,0.3 0.4,0.5l0,-3.2l1,0l0,8.5l-0.9,0zm-3.7,-2.2c0.1,0.3 0.2,0.5 0.3,0.7c0.2,0.2 0.4,0.4 0.6,0.5c0.2,0.1 0.5,0.2 0.9,0.2c0.3,0 0.6,-0.1 0.9,-0.2c0.2,-0.1 0.4,-0.3 0.6,-0.5c0.2,-0.2 0.3,-0.5 0.3,-0.7c0.1,-0.3 0.1,-0.6 0.1,-0.9c0,-0.3 0,-0.6 -0.1,-0.9c-0.1,-0.3 -0.2,-0.5 -0.3,-0.8c-0.2,-0.2 -0.4,-0.4 -0.6,-0.5c-0.2,-0.1 -0.5,-0.2 -0.9,-0.2c-0.3,0 -0.6,0.1 -0.9,0.2c-0.2,0.1 -0.4,0.3 -0.6,0.5c-0.1,0.2 -0.2,0.5 -0.3,0.8c-0.1,0.3 -0.1,0.6 -0.1,0.9c0,0.3 0,0.6 0.1,0.9z"/>
   <path id="svg_21" fill="#DBE3E5" d="m101.324859,21.19998c-0.3,0 -0.5,-0.0999 -0.6,-0.1999c-0.2,-0.1 -0.2,-0.4 -0.2,-0.7c-0.3,0.3 -0.6,0.6 -1,0.7c-0.4,0.1 -0.8,0.1999 -1.2,0.1999c-0.3,0 -0.5,0 -0.8,-0.1c-0.2,-0.1 -0.5,-0.1999 -0.7,-0.2999c-0.2,-0.1 -0.3,-0.3 -0.4,-0.5c-0.1,-0.2 -0.2,-0.5 -0.2,-0.8c0,-0.4 0.1,-0.6001 0.2,-0.9001c0.1,-0.2 0.3,-0.4 0.5,-0.5c0.2,-0.1 0.4,-0.1999 0.7,-0.2999c0.3,-0.1 0.5,-0.1001 0.8,-0.2001c0.3,-0.1 0.5,-0.0999 0.8,-0.0999c0.3,0 0.5,-0.1001 0.7,-0.1001c0.2,-0.1 0.3,-0.1 0.5,-0.2c0.1,-0.1 0.2,-0.1999 0.2,-0.3999c0,-0.2 0,-0.4 -0.1,-0.5c-0.1,-0.1 -0.2,-0.2 -0.3,-0.3c-0.1,-0.1 -0.3,-0.1001 -0.4,-0.1001c-0.2,0 -0.3,0 -0.5,0c-0.4,0 -0.8,0.1 -1.1,0.2c-0.3,0.2 -0.4,0.5001 -0.5,0.9001l-1,0c0,-0.4 0.1,-0.7 0.2,-1c0.1,-0.3 0.3,-0.5001 0.6,-0.6001c0.2,-0.2 0.5,-0.2999 0.8,-0.3999c0.3,-0.1 0.6,-0.1001 1,-0.1001c0.3,0 0.6,0.0001 0.8,0.1001c0.3,0 0.5,0.0999 0.7,0.1999c0.2,0.1 0.4,0.3 0.5,0.5c0.1,0.2 0.2,0.5 0.2,0.9l0,3.2001c0,0.2 0,0.4 0,0.5c0,0.1 0.1,0.2 0.3,0.2c0.1,0 0.2,-0.0001 0.3,-0.1001l0,0.7c-0.2,0.1 -0.5,0.1 -0.8,0.1zm-1.4,-3.1c-0.2,0 -0.4,0.1 -0.6,0.1c-0.2,0 -0.5,0.1001 -0.7,0.1001c-0.2,0 -0.4,0.1 -0.6,0.2c-0.2,0.1 -0.3,0.2 -0.4,0.3c-0.1,0.1 -0.2,0.2999 -0.2,0.5999c0,0.2 0,0.3001 0.1,0.4001c0.1,0.1 0.2,0.1999 0.3,0.2999c0.1,0.1 0.2,0.1001 0.4,0.2001c0.1,0 0.3,0 0.4,0c0.3,0 0.6,-0.0001 0.9,-0.1001c0.2,-0.1 0.4,-0.2 0.6,-0.3c0.2,-0.1 0.3,-0.3 0.3,-0.5c0.1,-0.2 0.1,-0.3 0.1,-0.5l0,-1c-0.2,0.1 -0.4,0.2 -0.6,0.2z"/>
  </g>
 </g>
</svg>