<svg width="276" height="24" viewBox="0 0 276 24" fill="none" xmlns="http://www.w3.org/2000/svg">
<path d="M195.3 9.00002L192.3 0.400024H193.5L195.9 7.80002L198.4 0.400024H199.6L196.6 9.00002H195.3Z" fill="#DBE3E5"/>
<path d="M204.1 8.60001C203.6 9.00001 203.1 9.10001 202.4 9.10001C201.9 9.10001 201.5 9.00001 201.1 8.90001C200.7 8.70001 200.4 8.50001 200.2 8.20001C200 7.90001 199.8 7.60001 199.6 7.20001C199.5 6.80001 199.4 6.40001 199.4 5.90001C199.4 5.40001 199.5 5.00001 199.6 4.60001C199.7 4.20001 199.9 3.90001 200.2 3.60001C200.5 3.30001 200.8 3.10001 201.1 2.90001C201.5 2.70001 201.8 2.70001 202.3 2.70001C202.9 2.70001 203.3 2.80001 203.7 3.00001C204.1 3.20001 204.4 3.50001 204.6 3.90001C204.8 4.30001 205 4.60001 205.1 5.00001C205.2 5.40001 205.2 5.80001 205.2 6.20001H200.6C200.6 6.50001 200.6 6.70001 200.7 7.00001C200.8 7.20001 200.9 7.50001 201 7.70001C201.2 7.90001 201.4 8.00001 201.6 8.20001C201.8 8.30001 202.1 8.40001 202.5 8.40001C202.9 8.40001 203.3 8.30001 203.6 8.10001C203.9 7.90001 204.1 7.60001 204.1 7.20001H205.1C204.9 7.70001 204.6 8.30001 204.1 8.60001ZM203.9 4.60001C203.8 4.40001 203.7 4.20001 203.5 4.00001C203.3 3.80001 203.2 3.70001 202.9 3.60001C202.7 3.50001 202.5 3.50001 202.2 3.50001C201.9 3.50001 201.7 3.50001 201.5 3.60001C201.3 3.70001 201.1 3.80001 201 4.00001C200.8 4.20001 200.7 4.30001 200.6 4.60001C200.5 4.80001 200.5 5.00001 200.4 5.30001H204C204 5.10001 203.9 4.80001 203.9 4.60001Z" fill="#DBE3E5"/>
<path d="M208.8 2.80002V3.70003H207.6V7.50002C207.6 7.60002 207.6 7.70002 207.6 7.80002C207.6 7.90002 207.7 7.90002 207.7 8.00002C207.8 8.00002 207.8 8.10002 207.9 8.10002C208 8.10002 208.1 8.10002 208.3 8.10002H208.8V9.00002H208C207.7 9.00002 207.5 9.00003 207.3 8.90003C207.1 8.90003 207 8.80003 206.8 8.70003C206.7 8.60003 206.6 8.50002 206.5 8.30002C206.4 8.10002 206.4 7.90002 206.4 7.60002V3.70003H205.3V2.80002H206.4V0.900024H207.4V2.80002H208.8V2.80002Z" fill="#DBE3E5"/>
<path d="M214.3 8.60001C213.8 9.00001 213.3 9.10001 212.6 9.10001C212.1 9.10001 211.7 9.00001 211.3 8.90001C210.9 8.70001 210.6 8.50001 210.4 8.20001C210.2 7.90001 210 7.60001 209.8 7.20001C209.7 6.80001 209.6 6.40001 209.6 5.90001C209.6 5.40001 209.7 5.00001 209.8 4.60001C209.9 4.20001 210.1 3.90001 210.4 3.60001C210.7 3.30001 211 3.10001 211.3 2.90001C211.7 2.70001 212 2.70001 212.5 2.70001C213.1 2.70001 213.5 2.80001 213.9 3.00001C214.3 3.20001 214.6 3.50001 214.8 3.90001C215 4.30001 215.2 4.60001 215.3 5.00001C215.4 5.40001 215.4 5.80001 215.4 6.20001H210.8C210.8 6.50001 210.8 6.70001 210.9 7.00001C211 7.20001 211.1 7.50001 211.2 7.70001C211.4 7.90001 211.6 8.00001 211.8 8.20001C212 8.30001 212.3 8.40001 212.7 8.40001C213.1 8.40001 213.5 8.30001 213.8 8.10001C214.1 7.90001 214.3 7.60001 214.3 7.20001H215.3C215.1 7.70001 214.8 8.30001 214.3 8.60001ZM214.1 4.60001C214 4.40001 213.9 4.20001 213.7 4.00001C213.5 3.80001 213.4 3.70001 213.1 3.60001C212.9 3.50001 212.7 3.50001 212.4 3.50001C212.1 3.50001 211.9 3.50001 211.7 3.60001C211.5 3.70001 211.3 3.80001 211.2 4.00001C211 4.20001 210.9 4.30001 210.8 4.60001C210.7 4.80001 210.7 5.00001 210.6 5.30001H214.2C214.2 5.10001 214.2 4.80001 214.1 4.60001Z" fill="#DBE3E5"/>
<path d="M217.3 2.8V4.1C217.5 3.6 217.9 3.2 218.2 3C218.6 2.8 219 2.6 219.6 2.7V3.8C219.2 3.8 218.8 3.9 218.6 4C218.3 4.1 218.1 4.3 217.9 4.5C217.7 4.7 217.6 5 217.5 5.3C217.4 5.6 217.4 6 217.4 6.4V9H216.4V2.8H217.3Z" fill="#DBE3E5"/>
<path d="M225.1 9.10005C224.8 9.10005 224.6 9.00005 224.5 8.90005C224.3 8.80005 224.3 8.50005 224.3 8.20005C224 8.50005 223.7 8.80005 223.3 8.90005C222.9 9.00005 222.5 9.10005 222.1 9.10005C221.8 9.10005 221.6 9.10005 221.3 9.00005C221.1 8.90005 220.8 8.80005 220.6 8.70005C220.4 8.60005 220.3 8.40005 220.2 8.20005C220.1 8.00005 220 7.70005 220 7.40005C220 7.00005 220.1 6.80005 220.2 6.50005C220.3 6.30005 220.5 6.10005 220.7 6.00005C220.9 5.90005 221.1 5.80005 221.4 5.70005C221.7 5.60005 221.9 5.60005 222.2 5.50005C222.5 5.40005 222.7 5.40005 223 5.40005C223.3 5.40005 223.5 5.30005 223.7 5.30005C223.9 5.20005 224 5.20005 224.2 5.10005C224.3 5.00005 224.4 4.90005 224.4 4.70005C224.4 4.50005 224.4 4.30005 224.3 4.20005C224.2 4.10005 224.1 4.00005 224 3.90005C223.9 3.80005 223.7 3.80005 223.6 3.80005C223.4 3.80005 223.3 3.80005 223.1 3.80005C222.7 3.80005 222.3 3.90005 222 4.00005C221.7 4.20005 221.6 4.50005 221.5 4.90005H220.5C220.5 4.50005 220.6 4.20005 220.7 3.90005C220.8 3.60005 221 3.40005 221.3 3.30005C221.5 3.10005 221.8 3.00005 222.1 2.90005C222.4 2.80005 222.7 2.80005 223.1 2.80005C223.4 2.80005 223.7 2.80005 223.9 2.90005C224.2 2.90005 224.4 3.00005 224.6 3.10005C224.8 3.20005 225 3.40005 225.1 3.60005C225.2 3.80005 225.3 4.10005 225.3 4.50005V7.70005C225.3 7.90005 225.3 8.10005 225.3 8.20005C225.3 8.30005 225.4 8.40005 225.6 8.40005C225.7 8.40005 225.8 8.40005 225.9 8.30005V9.00005C225.7 9.10005 225.4 9.10005 225.1 9.10005ZM223.7 6.00005C223.5 6.00005 223.3 6.10005 223.1 6.10005C222.9 6.10005 222.6 6.20005 222.4 6.20005C222.2 6.20005 222 6.30005 221.8 6.40005C221.6 6.50005 221.5 6.60005 221.4 6.70005C221.3 6.80005 221.2 7.00005 221.2 7.30005C221.2 7.50005 221.2 7.60005 221.3 7.70005C221.4 7.80005 221.5 7.90005 221.6 8.00005C221.7 8.10005 221.8 8.10005 222 8.20005C222.1 8.20005 222.3 8.20005 222.4 8.20005C222.7 8.20005 223 8.20005 223.3 8.10005C223.5 8.00005 223.7 7.90005 223.9 7.80005C224.1 7.70005 224.2 7.50005 224.2 7.30005C224.3 7.10005 224.3 7.00005 224.3 6.80005V5.80005C224.1 5.90005 223.9 6.00005 223.7 6.00005Z" fill="#DBE3E5"/>
<path d="M227.8 2.80001V3.80001C228.2 3.00001 228.9 2.70001 229.8 2.70001C230.2 2.70001 230.5 2.80001 230.8 2.90001C231.1 3.00001 231.3 3.20001 231.5 3.40001C231.7 3.60001 231.8 3.80001 231.9 4.10001C232 4.40001 232 4.70001 232 5.00001V9.00001H231V4.80001C231 4.40001 230.9 4.10001 230.7 3.90001C230.5 3.70001 230.2 3.60001 229.8 3.60001C229.5 3.60001 229.2 3.60001 229 3.70001C228.8 3.80001 228.6 3.90001 228.4 4.10001C228.2 4.30001 228.1 4.50001 228.1 4.70001C228 4.90001 228 5.20001 228 5.50001V9.00001H227V2.80001H227.8Z" fill="#DBE3E5"/>
<path d="M234.3 7.60002C234.4 7.80002 234.5 7.90002 234.7 8.00002C234.9 8.10002 235 8.20003 235.2 8.20003C235.4 8.20003 235.6 8.30002 235.8 8.30002C236 8.30002 236.1 8.30002 236.3 8.30002C236.5 8.30002 236.6 8.20003 236.8 8.20003C236.9 8.10003 237.1 8.00003 237.2 7.90003C237.3 7.80003 237.3 7.60003 237.3 7.40003C237.3 7.10003 237.2 6.90002 237 6.80002C236.8 6.70002 236.5 6.60002 236.2 6.50002C235.9 6.40002 235.6 6.30002 235.2 6.30002C234.8 6.20002 234.5 6.10002 234.2 6.00002C233.9 5.90002 233.6 5.70002 233.4 5.50002C233.2 5.30002 233.1 5.00003 233.1 4.60003C233.1 4.30003 233.2 4.00002 233.3 3.80002C233.4 3.60002 233.6 3.40002 233.8 3.30002C234 3.20002 234.3 3.10002 234.5 3.00002C234.8 2.90002 235 2.90002 235.3 2.90002C235.7 2.90002 236 2.90002 236.3 3.00002C236.6 3.10002 236.9 3.20002 237.1 3.30002C237.3 3.40002 237.5 3.60002 237.6 3.90002C237.7 4.20002 237.8 4.50002 237.8 4.80002H236.8C236.8 4.60002 236.7 4.40002 236.6 4.30002C236.5 4.20002 236.4 4.10002 236.3 4.00002C236.2 3.90002 236 3.90002 235.8 3.80002C235.6 3.80002 235.5 3.70003 235.3 3.70003C235.1 3.70003 235 3.70003 234.8 3.70003C234.6 3.70003 234.5 3.80002 234.4 3.80002C234.3 3.90002 234.2 3.90002 234.1 4.00002C234 4.10002 234 4.20002 234 4.40002C234 4.60002 234.1 4.70002 234.2 4.80002C234.3 4.90002 234.5 5.00003 234.7 5.10003C234.9 5.20003 235.1 5.20002 235.3 5.30002C235.5 5.40002 235.8 5.40002 236 5.50002C236.3 5.60002 236.5 5.60003 236.8 5.70003C237 5.80003 237.3 5.90002 237.4 6.00002C237.6 6.10002 237.7 6.30002 237.9 6.50002C238 6.70002 238.1 6.90003 238.1 7.20003C238.1 7.60003 238 7.90002 237.9 8.10002C237.7 8.30002 237.5 8.50003 237.3 8.70003C237 8.90003 236.8 9.00002 236.4 9.00002C236.1 9.10002 235.8 9.10002 235.5 9.10002C235.2 9.10002 234.8 9.10002 234.5 9.00002C234.2 8.90002 233.9 8.80002 233.7 8.60002C233.5 8.40002 233.3 8.20003 233.1 7.90003C233 7.60003 232.9 7.30003 232.9 6.90003H233.9C234.1 7.30003 234.2 7.50002 234.3 7.60002Z" fill="#DBE3E5"/>
<path d="M246.6 0.400024L249.9 9.00002H248.6L247.7 6.40003H244.1L243.1 9.00002H242L245.3 0.400024H246.6ZM247.4 5.50002L246 1.50002L244.5 5.50002H247.4Z" fill="#DBE3E5"/>
<path d="M250 3.70003V2.80002H251V1.90002C251 1.40002 251.1 1.00002 251.4 0.800024C251.7 0.500024 252.1 0.400024 252.7 0.400024C252.8 0.400024 252.9 0.400024 253 0.400024C253.1 0.400024 253.2 0.400025 253.3 0.500025V1.40002C253.2 1.40002 253.1 1.30002 253 1.30002C252.9 1.30002 252.8 1.30002 252.7 1.30002C252.5 1.30002 252.3 1.30002 252.1 1.40002C252 1.50002 251.9 1.70002 251.9 2.00002V2.90002H253.1V3.80002H252V9.00002H251V3.70003H250Z" fill="#DBE3E5"/>
<path d="M253.3 3.70003V2.80002H254.3V1.90002C254.3 1.40002 254.4 1.00002 254.7 0.800024C255 0.500024 255.4 0.400024 256 0.400024C256.1 0.400024 256.2 0.400024 256.3 0.400024C256.4 0.400024 256.5 0.400025 256.6 0.500025V1.40002C256.5 1.40002 256.4 1.30002 256.3 1.30002C256.2 1.30002 256.1 1.30002 256 1.30002C255.8 1.30002 255.6 1.30002 255.4 1.40002C255.3 1.50002 255.2 1.70002 255.2 2.00002V2.90002H256.4V3.80002H255.2V9.00002H254.2V3.70003H253.3Z" fill="#DBE3E5"/>
<path d="M262.2 9.10005C261.9 9.10005 261.7 9.00005 261.6 8.90005C261.4 8.80005 261.4 8.50005 261.4 8.20005C261.1 8.50005 260.8 8.80005 260.4 8.90005C260 9.00005 259.6 9.10005 259.2 9.10005C258.9 9.10005 258.7 9.10005 258.4 9.00005C258.2 8.90005 257.9 8.80005 257.7 8.70005C257.5 8.60005 257.4 8.40005 257.3 8.20005C257.2 8.00005 257.1 7.70005 257.1 7.40005C257.1 7.00005 257.2 6.80005 257.3 6.50005C257.4 6.30005 257.6 6.10005 257.8 6.00005C258 5.90005 258.2 5.80005 258.5 5.70005C258.8 5.60005 259 5.60005 259.3 5.50005C259.6 5.40005 259.8 5.40005 260.1 5.40005C260.4 5.40005 260.6 5.30005 260.8 5.30005C261 5.20005 261.1 5.20005 261.3 5.10005C261.4 5.00005 261.5 4.90005 261.5 4.70005C261.5 4.50005 261.5 4.30005 261.4 4.20005C261.3 4.10005 261.2 4.00005 261.1 3.90005C261 3.80005 260.8 3.80005 260.7 3.80005C260.5 3.80005 260.4 3.80005 260.2 3.80005C259.8 3.80005 259.4 3.90005 259.1 4.00005C258.8 4.20005 258.7 4.50005 258.6 4.90005H257.6C257.6 4.50005 257.7 4.20005 257.8 3.90005C257.9 3.60005 258.1 3.40005 258.4 3.30005C258.6 3.10005 258.9 3.00005 259.2 2.90005C259.5 2.80005 259.8 2.80005 260.2 2.80005C260.5 2.80005 260.8 2.80005 261 2.90005C261.3 2.90005 261.5 3.00005 261.7 3.10005C261.9 3.20005 262.1 3.40005 262.2 3.60005C262.3 3.80005 262.4 4.10005 262.4 4.50005V7.70005C262.4 7.90005 262.4 8.10005 262.4 8.20005C262.4 8.30005 262.5 8.40005 262.7 8.40005C262.8 8.40005 262.9 8.40005 263 8.30005V9.00005C262.8 9.10005 262.6 9.10005 262.2 9.10005ZM260.8 6.00005C260.6 6.00005 260.4 6.10005 260.1 6.10005C259.9 6.10005 259.6 6.20005 259.4 6.20005C259.2 6.20005 259 6.30005 258.8 6.40005C258.6 6.50005 258.5 6.60005 258.4 6.70005C258.3 6.80005 258.2 7.00005 258.2 7.30005C258.2 7.50005 258.2 7.60005 258.3 7.70005C258.4 7.80005 258.5 7.90005 258.6 8.00005C258.7 8.10005 258.8 8.10005 259 8.20005C259.1 8.20005 259.3 8.20005 259.4 8.20005C259.7 8.20005 260 8.20005 260.3 8.10005C260.5 8.00005 260.7 7.90005 260.9 7.80005C261.1 7.70005 261.2 7.50005 261.2 7.30005C261.3 7.10005 261.3 7.00005 261.3 6.80005V5.80005C261.2 5.90005 261 6.00005 260.8 6.00005Z" fill="#DBE3E5"/>
<path d="M265 1.7V0.5H264V1.7H265ZM264 2.8V9H265V2.8H264Z" fill="#DBE3E5"/>
<path d="M267.5 2.8V4.1C267.7 3.6 268.1 3.2 268.4 3C268.8 2.8 269.2 2.6 269.8 2.7V3.8C269.4 3.8 269 3.9 268.8 4C268.5 4.1 268.3 4.3 268.1 4.5C267.9 4.7 267.8 5 267.7 5.3C267.6 5.6 267.6 6 267.6 6.4V9H266.6V2.8H267.5Z" fill="#DBE3E5"/>
<path d="M271.4 7.60002C271.5 7.80002 271.6 7.90002 271.8 8.00002C272 8.10002 272.1 8.20003 272.3 8.20003C272.5 8.20003 272.7 8.30002 272.9 8.30002C273.1 8.30002 273.2 8.30002 273.4 8.30002C273.6 8.30002 273.7 8.20003 273.9 8.20003C274 8.10003 274.2 8.00003 274.3 7.90003C274.4 7.80003 274.4 7.60003 274.4 7.40003C274.4 7.10003 274.3 6.90002 274.1 6.80002C273.9 6.70002 273.6 6.60002 273.3 6.50002C273 6.40002 272.7 6.30002 272.3 6.30002C271.9 6.20002 271.6 6.10002 271.3 6.00002C271 5.90002 270.7 5.70002 270.5 5.50002C270.3 5.30002 270.2 5.00003 270.2 4.60003C270.2 4.30003 270.3 4.00002 270.4 3.80002C270.5 3.60002 270.7 3.40002 270.9 3.30002C271.1 3.20002 271.4 3.10002 271.6 3.00002C271.9 2.90002 272.2 2.90002 272.4 2.90002C272.8 2.90002 273.1 2.90002 273.4 3.00002C273.7 3.10002 274 3.20002 274.2 3.30002C274.4 3.40002 274.6 3.60002 274.7 3.90002C274.8 4.20002 274.9 4.50002 274.9 4.80002H273.9C273.9 4.60002 273.8 4.40002 273.7 4.30002C273.6 4.20002 273.5 4.10002 273.4 4.00002C273.3 3.90002 273.1 3.90002 272.9 3.80002C272.7 3.80002 272.6 3.70003 272.4 3.70003C272.2 3.70003 272.1 3.70003 271.9 3.70003C271.7 3.70003 271.6 3.80002 271.5 3.80002C271.4 3.90002 271.3 3.90002 271.2 4.00002C271.1 4.10002 271.1 4.20002 271.1 4.40002C271.1 4.60002 271.2 4.70002 271.3 4.80002C271.4 4.90002 271.6 5.00003 271.8 5.10003C272 5.20003 272.2 5.20002 272.4 5.30002C272.6 5.40002 272.9 5.40002 273.1 5.50002C273.4 5.60002 273.6 5.60003 273.9 5.70003C274.1 5.80003 274.4 5.90002 274.5 6.00002C274.7 6.10002 274.8 6.30002 275 6.50002C275.1 6.70002 275.2 6.90003 275.2 7.20003C275.2 7.60003 275.1 7.90002 275 8.10002C274.8 8.30002 274.6 8.50003 274.4 8.70003C274.1 8.90003 273.9 9.00002 273.5 9.00002C273.2 9.10002 272.9 9.10002 272.6 9.10002C272.3 9.10002 271.9 9.10002 271.6 9.00002C271.3 8.90002 271 8.80002 270.8 8.60002C270.6 8.40002 270.4 8.20003 270.2 7.90003C270.1 7.60003 270 7.30003 270 6.90003H271C271.2 7.30003 271.3 7.50002 271.4 7.60002Z" fill="#DBE3E5"/>
<path d="M198.4 13.6C198 13.3 197.4 13.1 196.8 13.1C196.3 13.1 195.8 13.2 195.5 13.4C195.1 13.6 194.8 13.9 194.6 14.2C194.4 14.5 194.2 14.9 194.1 15.3C194 15.7 193.9 16.1 193.9 16.6C193.9 17.1 194 17.5 194.1 18C194.2 18.4 194.4 18.8 194.6 19.1C194.8 19.4 195.1 19.7 195.5 19.9C195.9 20.1 196.3 20.2 196.8 20.2C197.2 20.2 197.5 20.1 197.8 20C198.1 19.9 198.3 19.7 198.6 19.5C198.8 19.3 199 19 199.1 18.7C199.2 18.4 199.3 18.1 199.3 17.7H200.4C200.3 18.8 199.9 19.6 199.3 20.2C198.7 20.8 197.8 21.1 196.7 21.1C196 21.1 195.5 21 195 20.8C194.5 20.6 194.1 20.3 193.8 19.9C193.5 19.5 193.2 19 193.1 18.5C192.9 18 192.9 17.4 192.9 16.8C192.9 16.2 193 15.6 193.2 15C193.4 14.5 193.6 14 194 13.6C194.3 13.2 194.8 12.9 195.3 12.6C195.8 12.4 196.4 12.2 197 12.2C197.4 12.2 197.9 12.3 198.3 12.4C198.7 12.5 199.1 12.7 199.4 12.9C199.7 13.1 200 13.4 200.2 13.8C200.4 14.1 200.5 14.6 200.6 15H199.5C199.1 14.4 198.8 13.9 198.4 13.6Z" fill="#DBE3E5"/>
<path d="M206.5 21.1C206.2 21.1 206 21.0001 205.9 20.9001C205.7 20.8001 205.7 20.5001 205.7 20.2001C205.4 20.5001 205.1 20.8001 204.7 20.9001C204.3 21.0001 203.9 21.1 203.5 21.1C203.2 21.1 203 21.1 202.7 21C202.5 20.9 202.2 20.8001 202 20.7001C201.8 20.6001 201.7 20.4001 201.6 20.2001C201.5 20.0001 201.4 19.7001 201.4 19.4001C201.4 19.0001 201.5 18.8 201.6 18.5C201.7 18.3 201.9 18.1 202.1 18C202.3 17.9 202.5 17.8001 202.8 17.7001C203.1 17.6001 203.3 17.6 203.6 17.5C203.9 17.4 204.1 17.4001 204.4 17.4001C204.7 17.4001 204.9 17.3 205.1 17.3C205.3 17.2 205.4 17.2 205.6 17.1C205.7 17 205.8 16.9001 205.8 16.7001C205.8 16.5001 205.8 16.3001 205.7 16.2001C205.6 16.1001 205.5 16.0001 205.4 15.9001C205.3 15.8001 205.1 15.8 205 15.8C204.9 15.8 204.7 15.8 204.5 15.8C204.1 15.8 203.7 15.9 203.4 16C203.1 16.2 203 16.5001 202.9 16.9001H201.9C201.9 16.5001 202 16.2001 202.1 15.9001C202.2 15.6001 202.4 15.4 202.7 15.3C202.9 15.1 203.2 15.0001 203.5 14.9001C203.8 14.8001 204.1 14.8 204.5 14.8C204.8 14.8 205.1 14.8001 205.3 14.9001C205.6 14.9001 205.8 15 206 15.1C206.2 15.2 206.4 15.4 206.5 15.6C206.6 15.8 206.7 16.1 206.7 16.5V19.7001C206.7 19.9001 206.7 20.1001 206.7 20.2001C206.7 20.3001 206.8 20.4001 207 20.4001C207.1 20.4001 207.2 20.4 207.3 20.3V21C207 21.1 206.8 21.1 206.5 21.1ZM205 18C204.8 18 204.6 18.1 204.3 18.1C204.1 18.1 203.8 18.2001 203.6 18.2001C203.4 18.2001 203.2 18.3001 203 18.4001C202.8 18.5001 202.7 18.6001 202.6 18.7001C202.5 18.8001 202.4 19 202.4 19.3C202.4 19.5 202.4 19.6001 202.5 19.7001C202.6 19.8001 202.7 19.9 202.8 20C202.9 20.1 203 20.1001 203.2 20.2001C203.3 20.2001 203.5 20.2001 203.6 20.2001C203.9 20.2001 204.2 20.2 204.5 20.1C204.7 20 204.9 19.9 205.1 19.8C205.3 19.7 205.4 19.5 205.4 19.3C205.5 19.1 205.5 19 205.5 18.8V17.8C205.4 17.9 205.2 18 205 18Z" fill="#DBE3E5"/>
<path d="M209.1 14.8V15.8C209.5 15 210.2 14.7 211.1 14.7C211.5 14.7 211.8 14.8 212.1 14.9C212.4 15 212.6 15.2 212.8 15.4C213 15.6 213.1 15.8 213.2 16.1C213.3 16.4 213.3 16.7 213.3 17V21H212.3V16.8C212.3 16.4 212.2 16.1 212 15.9C211.8 15.7 211.5 15.6 211.1 15.6C210.8 15.6 210.5 15.6 210.3 15.7C210.1 15.8 209.9 15.9 209.7 16.1C209.5 16.3 209.4 16.5 209.4 16.7C209.3 16.9 209.3 17.2 209.3 17.5V21H208.3V14.8H209.1Z" fill="#DBE3E5"/>
<path d="M219.6 21.1C219.3 21.1 219.1 21.0001 219 20.9001C218.8 20.8001 218.8 20.5001 218.8 20.2001C218.5 20.5001 218.2 20.8001 217.8 20.9001C217.4 21.0001 217 21.1 216.6 21.1C216.3 21.1 216.1 21.1 215.8 21C215.6 20.9 215.3 20.8001 215.1 20.7001C214.9 20.6001 214.8 20.4001 214.7 20.2001C214.6 20.0001 214.5 19.7001 214.5 19.4001C214.5 19.0001 214.6 18.8 214.7 18.5C214.8 18.3 215 18.1 215.2 18C215.4 17.9 215.6 17.8001 215.9 17.7001C216.2 17.6001 216.4 17.6 216.7 17.5C217 17.4 217.2 17.4001 217.5 17.4001C217.8 17.4001 218 17.3 218.2 17.3C218.4 17.2 218.5 17.2 218.7 17.1C218.8 17 218.9 16.9001 218.9 16.7001C218.9 16.5001 218.9 16.3001 218.8 16.2001C218.7 16.1001 218.6 16.0001 218.5 15.9001C218.4 15.8001 218.2 15.8 218.1 15.8C217.9 15.8 217.8 15.8 217.6 15.8C217.2 15.8 216.8 15.9 216.5 16C216.2 16.2 216.1 16.5001 216 16.9001H215C215 16.5001 215.1 16.2001 215.2 15.9001C215.3 15.6001 215.5 15.4 215.8 15.3C216 15.1 216.3 15.0001 216.6 14.9001C216.9 14.8001 217.2 14.8 217.6 14.8C217.9 14.8 218.2 14.8001 218.4 14.9001C218.7 14.9001 218.9 15 219.2 15.1C219.4 15.2 219.6 15.4 219.7 15.6C219.8 15.8 219.9 16.1 219.9 16.5V19.7001C219.9 19.9001 219.9 20.1001 219.9 20.2001C219.9 20.3001 220 20.4001 220.2 20.4001C220.3 20.4001 220.4 20.4 220.5 20.3V21C220.1 21.1 219.9 21.1 219.6 21.1ZM218.1 18C217.9 18 217.7 18.1 217.4 18.1C217.2 18.1 216.9 18.2001 216.7 18.2001C216.5 18.2001 216.3 18.3001 216.1 18.4001C215.9 18.5001 215.8 18.6001 215.7 18.7001C215.6 18.8001 215.5 19 215.5 19.3C215.5 19.5 215.5 19.6001 215.6 19.7001C215.7 19.8001 215.8 19.9 215.9 20C216 20.1 216.1 20.1001 216.3 20.2001C216.4 20.2001 216.6 20.2001 216.7 20.2001C217 20.2001 217.3 20.2 217.6 20.1C217.8 20 218 19.9 218.2 19.8C218.4 19.7 218.5 19.5 218.5 19.3C218.6 19.1 218.6 19 218.6 18.8V17.8C218.5 17.9 218.3 18 218.1 18Z" fill="#DBE3E5"/>
<path d="M225.8 21V20.2C225.6 20.5 225.4 20.8 225 20.9C224.6 21.1 224.2 21.1 223.8 21.1C223.3 21.1 222.9 21 222.5 20.8C222.1 20.6 221.8 20.4 221.6 20.1C221.4 19.8 221.2 19.5 221.1 19.1C221 18.7 220.9 18.3 220.9 17.9C220.9 17.5 221 17 221.1 16.7C221.2 16.3 221.4 16 221.6 15.7C221.8 15.4 222.1 15.2 222.5 15C222.9 14.8 223.3 14.7 223.7 14.7C223.9 14.7 224 14.7 224.2 14.7C224.4 14.7 224.6 14.8 224.8 14.9C225 15 225.2 15.1 225.3 15.2C225.5 15.3 225.6 15.5 225.7 15.7V12.5H226.7V21H225.8ZM222.1 18.8C222.2 19.1 222.3 19.3 222.4 19.5C222.6 19.7 222.8 19.9 223 20C223.2 20.1 223.5 20.2 223.9 20.2C224.2 20.2 224.5 20.1 224.8 20C225 19.9 225.2 19.7 225.4 19.5C225.6 19.3 225.7 19 225.7 18.8C225.8 18.5 225.8 18.2 225.8 17.9C225.8 17.6 225.8 17.3 225.7 17C225.6 16.7 225.5 16.5 225.4 16.2C225.2 16 225 15.8 224.8 15.7C224.6 15.6 224.3 15.5 223.9 15.5C223.6 15.5 223.3 15.6 223 15.7C222.8 15.8 222.6 16 222.4 16.2C222.3 16.4 222.2 16.7 222.1 17C222 17.3 222 17.6 222 17.9C222 18.2 222 18.5 222.1 18.8Z" fill="#DBE3E5"/>
<path d="M233.1 21.1C232.8 21.1 232.6 21.0001 232.5 20.9001C232.3 20.8001 232.3 20.5001 232.3 20.2001C232 20.5001 231.7 20.8001 231.3 20.9001C230.9 21.0001 230.5 21.1 230.1 21.1C229.8 21.1 229.6 21.1 229.3 21C229.1 20.9 228.8 20.8001 228.6 20.7001C228.4 20.6001 228.3 20.4001 228.2 20.2001C228.1 20.0001 228 19.7001 228 19.4001C228 19.0001 228.1 18.8 228.2 18.5C228.3 18.3 228.5 18.1 228.7 18C228.9 17.9 229.1 17.8001 229.4 17.7001C229.7 17.6001 229.9 17.6 230.2 17.5C230.5 17.4 230.7 17.4001 231 17.4001C231.3 17.4001 231.5 17.3 231.7 17.3C231.9 17.2 232 17.2 232.2 17.1C232.3 17 232.4 16.9001 232.4 16.7001C232.4 16.5001 232.4 16.3001 232.3 16.2001C232.2 16.1001 232.1 16.0001 232 15.9001C231.9 15.8001 231.7 15.8 231.6 15.8C231.4 15.8 231.3 15.8 231.1 15.8C230.7 15.8 230.3 15.9 230 16C229.7 16.2 229.6 16.5001 229.5 16.9001H228.5C228.5 16.5001 228.6 16.2001 228.7 15.9001C228.8 15.6001 229 15.4 229.3 15.3C229.5 15.1 229.8 15.0001 230.1 14.9001C230.4 14.8001 230.7 14.8 231.1 14.8C231.4 14.8 231.7 14.8001 231.9 14.9001C232.2 14.9001 232.4 15 232.6 15.1C232.8 15.2 233 15.4 233.1 15.6C233.2 15.8 233.3 16.1 233.3 16.5V19.7001C233.3 19.9001 233.3 20.1001 233.3 20.2001C233.3 20.3001 233.4 20.4001 233.6 20.4001C233.7 20.4001 233.8 20.4 233.9 20.3V21C233.7 21.1 233.4 21.1 233.1 21.1ZM231.7 18C231.5 18 231.3 18.1 231.1 18.1C230.9 18.1 230.6 18.2001 230.4 18.2001C230.2 18.2001 230 18.3001 229.8 18.4001C229.6 18.5001 229.5 18.6001 229.4 18.7001C229.3 18.8001 229.2 19 229.2 19.3C229.2 19.5 229.2 19.6001 229.3 19.7001C229.4 19.8001 229.5 19.9 229.6 20C229.7 20.1 229.8 20.1001 230 20.2001C230.1 20.2001 230.3 20.2001 230.4 20.2001C230.7 20.2001 231 20.2 231.3 20.1C231.5 20 231.7 19.9 231.9 19.8C232.1 19.7 232.2 19.5 232.2 19.3C232.3 19.1 232.3 19 232.3 18.8V17.8C232.1 17.9 231.9 18 231.7 18Z" fill="#DBE3E5"/>
<path d="M64.8 0.400024L68.1 9.00002H66.8L65.9 6.40003H62.3L61.3 9.00002H60.1L63.4 0.400024H64.8ZM65.6 5.50002L64.2 1.50002L62.7 5.50002H65.6Z" fill="#DBE3E5"/>
<path d="M69.8 2.80001V3.80001C70.2 3.00001 70.9 2.70001 71.8 2.70001C72.2 2.70001 72.5 2.80001 72.8 2.90001C73.1 3.00001 73.3 3.20001 73.5 3.40001C73.7 3.60001 73.8 3.80001 73.9 4.10001C74 4.40001 74 4.70001 74 5.00001V9.00001H73V4.80001C73 4.40001 72.9 4.10001 72.7 3.90001C72.5 3.70001 72.2 3.60001 71.8 3.60001C71.5 3.60001 71.2 3.60001 71 3.70001C70.8 3.80001 70.6 3.90001 70.4 4.10001C70.2 4.30001 70.1 4.50001 70.1 4.70001C70 4.90001 70 5.20001 70 5.50001V9.00001H69V2.80001H69.8Z" fill="#DBE3E5"/>
<path d="M79.2 3.90004C78.9 3.70004 78.6 3.60004 78.2 3.60004C77.8 3.60004 77.5 3.70004 77.3 3.80004C77.1 3.90004 76.9 4.10004 76.7 4.30004C76.6 4.50004 76.4 4.80004 76.4 5.10004C76.3 5.40004 76.3 5.70004 76.3 6.00004C76.3 6.30004 76.3 6.60004 76.4 6.80004C76.5 7.10004 76.6 7.30004 76.7 7.50004C76.8 7.70004 77 7.90004 77.3 8.00004C77.5 8.10004 77.8 8.20004 78.1 8.20004C78.6 8.20004 79 8.10004 79.3 7.80004C79.6 7.50004 79.8 7.20004 79.8 6.70004H80.8C80.7 7.50004 80.4 8.10004 79.9 8.50004C79.4 8.90004 78.8 9.10003 78 9.10003C77.5 9.10003 77.1 9.00004 76.7 8.90004C76.3 8.70004 76 8.50004 75.8 8.30004C75.6 8.00004 75.4 7.70004 75.2 7.30004C75.1 6.90004 75 6.50004 75 6.00004C75 5.50004 75.1 5.10004 75.2 4.70004C75.3 4.30004 75.5 3.90004 75.7 3.60004C75.9 3.30004 76.2 3.10004 76.6 2.90004C77 2.70004 77.4 2.60004 77.9 2.60004C78.3 2.60004 78.6 2.60004 78.9 2.70004C79.2 2.80004 79.5 2.90004 79.7 3.10004C79.9 3.30004 80.1 3.50004 80.3 3.80004C80.5 4.10004 80.5 4.40004 80.6 4.80004H79.5C79.6 4.40004 79.4 4.10004 79.2 3.90004Z" fill="#DBE3E5"/>
<path d="M82 1.7V0.5H83V1.7H82ZM83 2.8V9H82V2.8H83Z" fill="#DBE3E5"/>
<path d="M88.9999 8.60001C88.4999 9.00001 87.9999 9.10001 87.2999 9.10001C86.7999 9.10001 86.3999 9.00001 85.9999 8.90001C85.5999 8.70001 85.2999 8.50001 85.0999 8.20001C84.8999 7.90001 84.6999 7.60001 84.4999 7.20001C84.3999 6.80001 84.2999 6.40001 84.2999 5.90001C84.2999 5.40001 84.3999 5.00001 84.4999 4.60001C84.5999 4.20001 84.7999 3.90001 85.0999 3.60001C85.3999 3.30001 85.6999 3.10001 85.9999 2.90001C86.3999 2.70001 86.6999 2.70001 87.1999 2.70001C87.7999 2.70001 88.1999 2.80001 88.5999 3.00001C88.9999 3.20001 89.2999 3.50001 89.4999 3.90001C89.6999 4.30001 89.8999 4.60001 89.9999 5.00001C90.0999 5.40001 90.0999 5.80001 90.0999 6.20001H85.4999C85.4999 6.50001 85.4999 6.70001 85.5999 7.00001C85.6999 7.20001 85.7999 7.50001 85.8999 7.70001C86.0999 7.90001 86.2999 8.00001 86.4999 8.20001C86.6999 8.30001 86.9999 8.40001 87.3999 8.40001C87.7999 8.40001 88.1999 8.30001 88.4999 8.10001C88.7999 7.90001 88.9999 7.60001 88.9999 7.20001H89.9999C89.6999 7.70001 89.3999 8.30001 88.9999 8.60001ZM88.6999 4.60001C88.5999 4.40001 88.4999 4.20001 88.2999 4.00001C88.0999 3.80001 87.9999 3.70001 87.6999 3.60001C87.4999 3.50001 87.2999 3.50001 86.9999 3.50001C86.6999 3.50001 86.4999 3.50001 86.2999 3.60001C86.0999 3.70001 85.8999 3.80001 85.7999 4.00001C85.5999 4.20001 85.4999 4.30001 85.3999 4.60001C85.2999 4.80001 85.2999 5.00001 85.1999 5.30001H88.7999C88.8999 5.10001 88.7999 4.80001 88.6999 4.60001Z" fill="#DBE3E5"/>
<path d="M92 2.80001V3.80001C92.4 3.00001 93.1 2.70001 94 2.70001C94.4 2.70001 94.7 2.80001 95 2.90001C95.3 3.00001 95.5 3.20001 95.7 3.40001C95.9 3.60001 96 3.80001 96.1 4.10001C96.2 4.40001 96.2 4.70001 96.2 5.00001V9.00001H95.2V4.80001C95.2 4.40001 95.1 4.10001 94.9 3.90001C94.7 3.70001 94.4 3.60001 94 3.60001C93.7 3.60001 93.4 3.60001 93.2 3.70001C93 3.80001 92.8 3.90001 92.6 4.10001C92.4 4.30001 92.3 4.50001 92.3 4.70001C92.1 5.00001 92 5.20001 92 5.50001V9.00001H91V2.80001H92Z" fill="#DBE3E5"/>
<path d="M98.5 7.60002C98.6 7.80002 98.7 7.90002 98.9 8.00002C99.1 8.10002 99.2 8.20003 99.4 8.20003C99.6 8.20003 99.8 8.30002 100 8.30002C100.2 8.30002 100.3 8.30002 100.5 8.30002C100.7 8.30002 100.8 8.20003 101 8.20003C101.1 8.10003 101.3 8.00003 101.4 7.90003C101.5 7.80003 101.5 7.60003 101.5 7.40003C101.5 7.10003 101.4 6.90002 101.2 6.80002C101 6.70002 100.7 6.60002 100.4 6.50002C100.1 6.40002 99.8 6.30002 99.4 6.30002C99 6.20002 98.7 6.10002 98.4 6.00002C98.1 5.90002 97.8 5.70002 97.6 5.50002C97.4 5.30002 97.3 5.00003 97.3 4.60003C97.3 4.30003 97.4 4.00002 97.5 3.80002C97.6 3.60002 97.8 3.40002 98 3.30002C98.2 3.20002 98.5 3.10002 98.7 3.00002C99 2.90002 99.3 2.90002 99.5 2.90002C99.9 2.90002 100.2 2.90002 100.5 3.00002C100.8 3.10002 101.1 3.20002 101.3 3.30002C101.5 3.40002 101.7 3.60002 101.8 3.90002C101.9 4.20002 102 4.50002 102 4.80002H101C101 4.60002 100.9 4.40002 100.8 4.30002C100.7 4.20002 100.6 4.10002 100.5 4.00002C100.4 3.90002 100.2 3.90002 100 3.80002C99.8 3.80002 99.7 3.70003 99.5 3.70003C99.3 3.70003 99.2 3.70003 99 3.70003C98.8 3.70003 98.7 3.80002 98.6 3.80002C98.5 3.90002 98.4 3.90002 98.3 4.00002C98.2 4.10002 98.2 4.20002 98.2 4.40002C98.2 4.60002 98.3 4.70002 98.4 4.80002C98.5 4.90002 98.7 5.00003 98.9 5.10003C99.1 5.20003 99.3 5.20002 99.5 5.30002C99.7 5.40002 100 5.40002 100.2 5.50002C100.5 5.60002 100.7 5.60003 101 5.70003C101.2 5.80003 101.5 5.90002 101.6 6.00002C101.8 6.10002 101.9 6.30002 102.1 6.50002C102.2 6.70002 102.3 6.90003 102.3 7.20003C102.3 7.60003 102.2 7.90002 102.1 8.10002C101.9 8.30002 101.7 8.50003 101.5 8.70003C101.2 8.90003 101 9.00002 100.6 9.00002C100.3 9.10002 100 9.10002 99.7 9.10002C99.4 9.10002 99 9.10002 98.7 9.00002C98.4 8.90002 98.1 8.80002 97.9 8.60002C97.7 8.40002 97.5 8.20003 97.3 7.90003C97.2 7.60003 97.1 7.30003 97.1 6.90003H98.1C98.3 7.30003 98.4 7.50002 98.5 7.60002Z" fill="#DBE3E5"/>
<path d="M112.4 1.60001C112 1.30001 111.4 1.10001 110.8 1.10001C110.3 1.10001 109.8 1.20001 109.5 1.40001C109.1 1.60001 108.8 1.90001 108.6 2.20001C108.4 2.50001 108.2 2.90001 108.1 3.30001C108 3.70001 107.9 4.10001 107.9 4.60001C107.9 5.10001 108 5.50001 108.1 6.00001C108.2 6.40001 108.4 6.80001 108.6 7.10001C108.8 7.40001 109.1 7.70001 109.5 7.90001C109.9 8.10001 110.3 8.20001 110.8 8.20001C111.2 8.20001 111.5 8.10001 111.8 8.00001C112.1 7.90001 112.3 7.70001 112.6 7.50001C112.8 7.30001 113 7.00001 113.1 6.70001C113.2 6.40001 113.3 6.10001 113.3 5.70001H114.4C114.3 6.80001 113.9 7.60001 113.3 8.20001C112.7 8.80001 111.8 9.10001 110.7 9.10001C110 9.10001 109.5 9.00001 109 8.80001C108.5 8.60001 108.1 8.30001 107.8 7.90001C107.5 7.50001 107.2 7.00001 107.1 6.50001C106.9 6.00001 106.9 5.40001 106.9 4.80001C106.9 4.20001 107 3.60001 107.2 3.00001C107.4 2.50001 107.6 2.00001 108 1.60001C108.3 1.20001 108.8 0.900012 109.3 0.600012C109.8 0.400012 110.4 0.200012 111 0.200012C111.4 0.200012 111.9 0.300011 112.3 0.400011C112.7 0.500011 113.1 0.700011 113.4 0.900011C113.7 1.10001 114 1.40001 114.2 1.80001C114.4 2.10001 114.5 2.60001 114.6 3.00001H113.5C113.1 2.40001 112.8 1.90001 112.4 1.60001Z" fill="#DBE3E5"/>
<path d="M115.6 4.60004C115.7 4.20004 115.9 3.90004 116.2 3.60004C116.5 3.30004 116.8 3.10004 117.1 2.90004C117.5 2.70004 117.9 2.60004 118.4 2.60004C118.9 2.60004 119.3 2.70004 119.7 2.90004C120.1 3.10004 120.4 3.30004 120.6 3.60004C120.9 3.90004 121 4.20004 121.2 4.60004C121.3 5.00004 121.4 5.40004 121.4 5.90004C121.4 6.40004 121.3 6.80004 121.2 7.20004C121.1 7.60004 120.9 7.90004 120.6 8.20004C120.3 8.50004 120 8.70004 119.7 8.90004C119.3 9.10004 118.9 9.10003 118.4 9.10003C117.9 9.10003 117.5 9.00004 117.1 8.90004C116.7 8.70004 116.4 8.50004 116.2 8.20004C115.9 7.90004 115.8 7.60004 115.6 7.20004C115.5 6.80004 115.4 6.40004 115.4 5.90004C115.4 5.50004 115.4 5.00004 115.6 4.60004ZM116.6 6.90004C116.7 7.20004 116.8 7.40003 117 7.60003C117.2 7.80003 117.4 7.90004 117.6 8.00004C117.8 8.10004 118.1 8.20004 118.3 8.20004C118.6 8.20004 118.8 8.10004 119 8.00004C119.2 7.90004 119.4 7.70003 119.6 7.60003C119.8 7.40003 119.9 7.20004 120 6.90004C120.1 6.60004 120.1 6.30004 120.1 5.90004C120.1 5.50004 120.1 5.20004 120 4.90004C119.9 4.60004 119.8 4.40004 119.6 4.20004C119.4 4.00004 119.2 3.80004 119 3.70004C118.8 3.60004 118.5 3.50004 118.3 3.50004C118 3.50004 117.8 3.60004 117.6 3.70004C117.4 3.80004 117.2 4.00004 117 4.20004C116.8 4.40004 116.7 4.60004 116.6 4.90004C116.5 5.20004 116.4 5.50004 116.4 5.90004C116.5 6.30004 116.5 6.60004 116.6 6.90004Z" fill="#DBE3E5"/>
<path d="M123.5 2.8V3.7C124 3 124.6 2.6 125.5 2.6C125.9 2.6 126.2 2.7 126.5 2.8C126.8 3 127 3.2 127.2 3.6C127.4 3.3 127.7 3 128 2.8C128.3 2.6 128.7 2.5 129.1 2.5C129.4 2.5 129.7 2.5 129.9 2.6C130.2 2.7 130.4 2.8 130.5 2.9C130.7 3 130.8 3.2 130.9 3.5C131 3.7 131.1 4 131.1 4.3V9H130.1V4.9C130.1 4.7 130.1 4.5 130.1 4.4C130.1 4.2 130 4.1 129.9 4C129.8 3.9 129.7 3.8 129.5 3.7C129.3 3.6 129.1 3.6 128.9 3.6C128.4 3.6 128 3.7 127.7 4C127.4 4.3 127.3 4.7 127.3 5.1V9H126.3V4.9C126.3 4.7 126.3 4.5 126.2 4.3C126.2 4.1 126.1 4 126 3.9C125.9 3.8 125.8 3.7 125.6 3.6C125.5 3.5 125.3 3.5 125 3.5C124.7 3.5 124.5 3.6 124.2 3.7C124 3.8 123.8 4 123.7 4.1C123.6 4.3 123.5 4.4 123.4 4.6C123.3 4.8 123.3 4.9 123.3 5V9H122.3V2.8H123.5Z" fill="#DBE3E5"/>
<path d="M133.9 0.400024V3.60003C134.1 3.30003 134.3 3.00002 134.7 2.80002C135.1 2.60002 135.5 2.60003 135.9 2.60003C136.4 2.60003 136.8 2.70002 137.1 2.90002C137.5 3.10002 137.7 3.30003 138 3.60003C138.2 3.90003 138.4 4.20003 138.5 4.60003C138.6 5.00003 138.7 5.40002 138.7 5.80002C138.7 6.20002 138.6 6.70002 138.5 7.10002C138.4 7.50002 138.2 7.80002 138 8.10002C137.8 8.40002 137.5 8.60002 137.1 8.80002C136.7 9.00002 136.3 9.10002 135.9 9.10002C135.7 9.10002 135.6 9.10002 135.4 9.10002C135.2 9.10002 135 9.00003 134.8 8.90003C134.6 8.80003 134.4 8.70002 134.3 8.60002C134.1 8.50002 134 8.30002 133.9 8.10002V9.00002H132.9V0.400024H133.9ZM137.5 5.00002C137.4 4.70002 137.3 4.50002 137.2 4.30002C137 4.10002 136.8 3.90002 136.6 3.80002C136.4 3.70002 136.1 3.60003 135.7 3.60003C135.4 3.60003 135.1 3.70002 134.8 3.80002C134.6 3.90002 134.4 4.10002 134.2 4.30002C134 4.50002 133.9 4.80002 133.9 5.00002C133.8 5.30002 133.8 5.60002 133.8 5.90002C133.8 6.20002 133.8 6.50002 133.9 6.80002C134 7.10002 134.1 7.30002 134.2 7.60002C134.4 7.80002 134.6 8.00002 134.8 8.10002C135 8.20002 135.3 8.30002 135.7 8.30002C136.1 8.30002 136.3 8.20002 136.6 8.10002C136.8 8.00002 137 7.80002 137.2 7.60002C137.3 7.40002 137.4 7.10002 137.5 6.80002C137.6 6.50002 137.6 6.20002 137.6 5.90002C137.7 5.60002 137.6 5.30002 137.5 5.00002Z" fill="#DBE3E5"/>
<path d="M144.7 9.09999C144.4 9.09999 144.2 8.99999 144.1 8.89999C143.9 8.79999 143.9 8.49999 143.9 8.19999C143.6 8.49999 143.3 8.79999 142.9 8.89999C142.5 8.99999 142.1 9.09999 141.7 9.09999C141.4 9.09999 141.2 9.09999 140.9 8.99999C140.7 8.89999 140.4 8.79999 140.2 8.69999C140 8.59999 139.9 8.39999 139.8 8.19999C139.7 7.99999 139.6 7.69999 139.6 7.39999C139.6 6.99999 139.7 6.79999 139.8 6.49999C139.9 6.29999 140.1 6.09999 140.3 5.99999C140.5 5.89999 140.7 5.79999 141 5.69999C141.3 5.59999 141.5 5.59999 141.8 5.49999C142.1 5.39999 142.3 5.39999 142.6 5.39999C142.9 5.39999 143.1 5.29999 143.3 5.29999C143.5 5.19999 143.6 5.19999 143.8 5.09999C143.9 4.99999 144 4.89999 144 4.69999C144 4.49999 144 4.29999 143.9 4.19999C143.8 4.09999 143.7 3.99999 143.6 3.89999C143.5 3.79999 143.3 3.79999 143.2 3.79999C143 3.79999 142.9 3.79999 142.7 3.79999C142.3 3.79999 141.9 3.89999 141.6 3.99999C141.3 4.19999 141.2 4.49999 141.1 4.89999H140.1C140.1 4.49999 140.2 4.19999 140.3 3.89999C140.4 3.59999 140.6 3.39999 140.9 3.29999C141.1 3.09999 141.4 2.99999 141.7 2.89999C142 2.79999 142.3 2.79999 142.7 2.79999C143 2.79999 143.3 2.79999 143.5 2.89999C143.8 2.89999 144 2.99999 144.2 3.09999C144.4 3.19999 144.6 3.39999 144.7 3.59999C144.8 3.79999 144.9 4.09999 144.9 4.49999V7.69999C144.9 7.89999 144.9 8.09999 144.9 8.19999C144.9 8.29999 145 8.39999 145.2 8.39999C145.3 8.39999 145.4 8.39999 145.5 8.29999V8.99999C145.3 9.09999 145 9.09999 144.7 9.09999ZM143.3 5.99999C143.1 5.99999 142.9 6.09999 142.6 6.09999C142.4 6.09999 142.1 6.19999 141.9 6.19999C141.7 6.19999 141.5 6.29999 141.3 6.39999C141.1 6.49999 141 6.59999 140.9 6.69999C140.8 6.79999 140.7 6.99999 140.7 7.29999C140.7 7.49999 140.7 7.59999 140.8 7.69999C140.9 7.79999 141 7.89999 141.1 7.99999C141.2 8.09999 141.3 8.09999 141.5 8.19999C141.6 8.19999 141.8 8.19999 141.9 8.19999C142.2 8.19999 142.5 8.19999 142.8 8.09999C143 7.99999 143.2 7.89999 143.4 7.79999C143.6 7.69999 143.7 7.49999 143.7 7.29999C143.8 7.09999 143.8 6.99999 143.8 6.79999V5.79999C143.6 5.89999 143.5 5.99999 143.3 5.99999Z" fill="#DBE3E5"/>
<path d="M149 2.80002V3.70003H147.8V7.50002C147.8 7.60002 147.8 7.70002 147.8 7.80002C147.8 7.90002 147.9 7.90002 147.9 8.00002C148 8.00002 148 8.10002 148.1 8.10002C148.2 8.10002 148.3 8.10002 148.5 8.10002H149V9.00002H148.2C147.9 9.00002 147.7 9.00003 147.5 8.90003C147.3 8.90003 147.2 8.80003 147 8.70003C146.9 8.60003 146.8 8.50002 146.7 8.30002C146.6 8.10002 146.6 7.90002 146.6 7.60002V3.70003H145.5V2.80002H146.6V0.900024H147.6V2.80002H149V2.80002Z" fill="#DBE3E5"/>
<path d="M152.8 2.80002V3.70003H151.6V7.50002C151.6 7.60002 151.6 7.70002 151.6 7.80002C151.6 7.90002 151.7 7.90002 151.7 8.00002C151.8 8.00002 151.8 8.10002 151.9 8.10002C152 8.10002 152.1 8.10002 152.3 8.10002H152.8V9.00002H152C151.7 9.00002 151.5 9.00003 151.3 8.90003C151.1 8.90003 151 8.80003 150.8 8.70003C150.7 8.60003 150.6 8.50002 150.5 8.30002C150.4 8.10002 150.4 7.90002 150.4 7.60002V3.70003H149.3V2.80002H150.4V0.900024H151.4V2.80002H152.8V2.80002Z" fill="#DBE3E5"/>
<path d="M158.7 9.09999C158.4 9.09999 158.2 8.99999 158.1 8.89999C157.9 8.79999 157.9 8.49999 157.9 8.19999C157.6 8.49999 157.3 8.79999 156.9 8.89999C156.5 8.99999 156.1 9.09999 155.7 9.09999C155.4 9.09999 155.2 9.09999 154.9 8.99999C154.7 8.89999 154.4 8.79999 154.2 8.69999C154 8.59999 153.9 8.39999 153.8 8.19999C153.7 7.99999 153.6 7.69999 153.6 7.39999C153.6 6.99999 153.7 6.79999 153.8 6.49999C153.9 6.29999 154.1 6.09999 154.3 5.99999C154.5 5.89999 154.7 5.79999 155 5.69999C155.3 5.59999 155.5 5.59999 155.8 5.49999C156.1 5.39999 156.3 5.39999 156.6 5.39999C156.9 5.39999 157.1 5.29999 157.3 5.29999C157.5 5.19999 157.6 5.19999 157.8 5.09999C157.9 4.99999 158 4.89999 158 4.69999C158 4.49999 158 4.29999 157.9 4.19999C157.8 4.09999 157.7 3.99999 157.6 3.89999C157.5 3.79999 157.3 3.79999 157.2 3.79999C157 3.79999 156.9 3.79999 156.7 3.79999C156.3 3.79999 155.9 3.89999 155.6 3.99999C155.3 4.19999 155.2 4.49999 155.1 4.89999H154.1C154.1 4.49999 154.2 4.19999 154.3 3.89999C154.4 3.59999 154.6 3.39999 154.9 3.29999C155.1 3.09999 155.4 2.99999 155.7 2.89999C156 2.79999 156.3 2.79999 156.7 2.79999C157 2.79999 157.3 2.79999 157.5 2.89999C157.8 2.89999 158 2.99999 158.3 3.09999C158.5 3.19999 158.7 3.39999 158.8 3.59999C158.9 3.79999 159 4.09999 159 4.49999V7.69999C159 7.89999 159 8.09999 159 8.19999C159 8.29999 159.1 8.39999 159.3 8.39999C159.4 8.39999 159.5 8.39999 159.6 8.29999V8.99999C159.3 9.09999 159 9.09999 158.7 9.09999ZM157.3 5.99999C157.1 5.99999 156.9 6.09999 156.6 6.09999C156.4 6.09999 156.1 6.19999 155.9 6.19999C155.7 6.19999 155.5 6.29999 155.3 6.39999C155.1 6.49999 155 6.59999 154.9 6.69999C154.8 6.79999 154.7 6.99999 154.7 7.29999C154.7 7.49999 154.7 7.59999 154.8 7.69999C154.9 7.79999 155 7.89999 155.1 7.99999C155.2 8.09999 155.3 8.09999 155.5 8.19999C155.6 8.19999 155.8 8.19999 155.9 8.19999C156.2 8.19999 156.5 8.19999 156.8 8.09999C157 7.99999 157.2 7.89999 157.4 7.79999C157.6 7.69999 157.7 7.49999 157.7 7.29999C157.8 7.09999 157.8 6.99999 157.8 6.79999V5.79999C157.6 5.89999 157.5 5.99999 157.3 5.99999Z" fill="#DBE3E5"/>
<path d="M161.3 2.80001V3.80001C161.7 3.00001 162.4 2.70001 163.3 2.70001C163.7 2.70001 164 2.80001 164.3 2.90001C164.6 3.00001 164.8 3.20001 165 3.40001C165.2 3.60001 165.3 3.80001 165.4 4.10001C165.5 4.40001 165.5 4.70001 165.5 5.00001V9.00001H164.5V4.80001C164.5 4.40001 164.4 4.10001 164.2 3.90001C164 3.70001 163.7 3.60001 163.3 3.60001C163 3.60001 162.7 3.60001 162.5 3.70001C162.3 3.80001 162.1 3.90001 161.9 4.10001C161.7 4.30001 161.6 4.50001 161.6 4.70001C161.5 4.90001 161.5 5.20001 161.5 5.50001V9.00001H160.5V2.80001H161.3Z" fill="#DBE3E5"/>
<path d="M169.7 2.80002V3.70003H168.5V7.50002C168.5 7.60002 168.5 7.70002 168.5 7.80002C168.5 7.90002 168.6 7.90002 168.6 8.00002C168.7 8.00002 168.7 8.10002 168.8 8.10002C168.9 8.10002 169 8.10002 169.2 8.10002H169.7V9.00002H168.9C168.6 9.00002 168.4 9.00003 168.2 8.90003C168 8.90003 167.9 8.80003 167.7 8.70003C167.6 8.60003 167.5 8.50002 167.4 8.30002C167.3 8.10002 167.3 7.90002 167.3 7.60002V3.70003H166.2V2.80002H167.3V0.900024H168.3V2.80002H169.7V2.80002Z" fill="#DBE3E5"/>
<path d="M171.6 7.60002C171.7 7.80002 171.8 7.90002 172 8.00002C172.2 8.10002 172.3 8.20003 172.5 8.20003C172.7 8.20003 172.9 8.30002 173.1 8.30002C173.3 8.30002 173.4 8.30002 173.6 8.30002C173.8 8.30002 173.9 8.20003 174.1 8.20003C174.2 8.10003 174.4 8.00003 174.5 7.90003C174.6 7.80003 174.6 7.60003 174.6 7.40003C174.6 7.10003 174.5 6.90002 174.3 6.80002C174.1 6.70002 173.8 6.60002 173.5 6.50002C173.2 6.40002 172.9 6.30002 172.5 6.30002C172.1 6.20002 171.8 6.10002 171.5 6.00002C171.2 5.90002 170.9 5.70002 170.7 5.50002C170.5 5.30002 170.4 5.00003 170.4 4.60003C170.4 4.30003 170.5 4.00002 170.6 3.80002C170.7 3.60002 170.9 3.40002 171.1 3.30002C171.3 3.20002 171.6 3.10002 171.8 3.00002C172.1 2.90002 172.3 2.90002 172.6 2.90002C173 2.90002 173.3 2.90002 173.6 3.00002C173.9 3.10002 174.2 3.20002 174.4 3.30002C174.6 3.40002 174.8 3.60002 174.9 3.90002C175 4.20002 175.1 4.50002 175.1 4.80002H174.1C174.1 4.60002 174 4.40002 173.9 4.30002C173.8 4.20002 173.7 4.10002 173.6 4.00002C173.5 3.90002 173.3 3.90002 173.1 3.80002C172.9 3.80002 172.8 3.70003 172.6 3.70003C172.4 3.70003 172.3 3.70003 172.1 3.70003C171.9 3.70003 171.8 3.80002 171.7 3.80002C171.6 3.90002 171.5 3.90002 171.4 4.00002C171.3 4.10002 171.3 4.20002 171.3 4.40002C171.3 4.60002 171.4 4.70002 171.5 4.80002C171.6 4.90002 171.8 5.00003 172 5.10003C172.2 5.20003 172.4 5.20002 172.6 5.30002C172.8 5.40002 173.1 5.40002 173.3 5.50002C173.6 5.60002 173.8 5.60003 174.1 5.70003C174.3 5.80003 174.6 5.90002 174.7 6.00002C174.9 6.10002 175 6.30002 175.2 6.50002C175.3 6.70002 175.4 6.90003 175.4 7.20003C175.4 7.60003 175.3 7.90002 175.2 8.10002C175 8.30002 174.8 8.50003 174.6 8.70003C174.3 8.90003 174.1 9.00002 173.7 9.00002C173.4 9.10002 173.1 9.10002 172.8 9.10002C172.5 9.10002 172.1 9.10002 171.8 9.00002C171.5 8.90002 171.2 8.80002 171 8.60002C170.8 8.40002 170.6 8.20003 170.4 7.90003C170.3 7.60003 170.2 7.30003 170.2 6.90003H171.2C171.5 7.30003 171.5 7.50002 171.6 7.60002Z" fill="#DBE3E5"/>
<path d="M66.4 13.6C66 13.3 65.4 13.1 64.8 13.1C64.3 13.1 63.8 13.2 63.5 13.4C63.1 13.6 62.8 13.9 62.6 14.2C62.4 14.5 62.2 14.9 62.1 15.3C62 15.7 61.9 16.1 61.9 16.6C61.9 17.1 62 17.5 62.1 18C62.2 18.4 62.4 18.8 62.6 19.1C62.8 19.4 63.1 19.7 63.5 19.9C63.9 20.1 64.3 20.2 64.8 20.2C65.2 20.2 65.5 20.1 65.8 20C66.1 19.9 66.3 19.7 66.6 19.5C66.8 19.3 67 19 67.1 18.7C67.2 18.4 67.3 18.1 67.3 17.7H68.4C68.3 18.8 67.9 19.6 67.3 20.2C66.7 20.8 65.8 21.1 64.7 21.1C64 21.1 63.5 21 63 20.8C62.5 20.6 62.1 20.3 61.8 19.9C61.5 19.5 61.2 19 61.1 18.5C60.9 18 60.9 17.4 60.9 16.8C60.9 16.2 61 15.6 61.2 15C61.4 14.5 61.6 14 62 13.6C62.3 13.2 62.8 12.9 63.3 12.6C63.8 12.4 64.4 12.2 65 12.2C65.4 12.2 65.9 12.3 66.3 12.4C66.7 12.5 67.1 12.7 67.4 12.9C67.7 13.1 68 13.4 68.2 13.8C68.4 14.1 68.5 14.6 68.6 15H67.5C67.1 14.4 66.8 13.9 66.4 13.6Z" fill="#DBE3E5"/>
<path d="M74.5 21.1C74.2 21.1 74 21 73.9 20.9C73.7 20.8 73.7 20.5 73.7 20.2C73.4 20.5 73.1 20.8 72.7 20.9C72.3 21 71.9 21.1 71.5 21.1C71.2 21.1 71 21.1 70.7 21C70.5 20.9 70.2 20.8 70 20.7C69.8 20.6 69.7 20.4 69.6 20.2C69.5 20 69.4 19.7 69.4 19.4C69.4 19 69.5 18.8 69.6 18.5C69.7 18.3 69.9 18.1 70.1 18C70.3 17.9 70.5 17.8 70.8 17.7C71.1 17.6 71.3 17.6 71.6 17.5C71.9 17.4 72.1 17.4 72.4 17.4C72.7 17.4 72.9 17.3 73.1 17.3C73.3 17.2 73.4 17.2 73.6 17.1C73.7 17 73.8 16.9 73.8 16.7C73.8 16.5 73.8 16.3 73.7 16.2C73.6 16.1 73.5 16 73.4 15.9C73.3 15.8 73.1 15.8 73 15.8C72.9 15.8 72.7 15.8 72.5 15.8C72.1 15.8 71.7 15.9 71.4 16C71.1 16.2 71 16.5 70.9 16.9H69.9C69.9 16.5 70 16.2 70.1 15.9C70.2 15.6 70.4 15.4 70.7 15.3C70.9 15.1 71.2 15 71.5 14.9C71.8 14.8 72.1 14.8 72.5 14.8C72.8 14.8 73.1 14.8 73.3 14.9C73.6 14.9 73.8 15 74 15.1C74.2 15.2 74.4 15.4 74.5 15.6C74.6 15.8 74.7 16.1 74.7 16.5V19.7C74.7 19.9 74.7 20.1 74.7 20.2C74.7 20.3 74.8 20.4 75 20.4C75.1 20.4 75.2 20.4 75.3 20.3V21C75 21.1 74.8 21.1 74.5 21.1ZM73 18C72.8 18 72.6 18.1 72.4 18.1C72.2 18.1 71.9 18.2 71.7 18.2C71.5 18.2 71.3 18.3 71.1 18.4C70.9 18.5 70.8 18.6 70.7 18.7C70.6 18.8 70.5 19 70.5 19.3C70.5 19.5 70.5 19.6 70.6 19.7C70.7 19.8 70.8 19.9 70.9 20C71 20.1 71.1 20.1 71.3 20.2C71.4 20.2 71.6 20.2 71.7 20.2C72 20.2 72.3 20.2 72.6 20.1C72.8 20 73 19.9 73.2 19.8C73.4 19.7 73.5 19.5 73.5 19.3C73.6 19.1 73.6 19 73.6 18.8V17.8C73.4 17.9 73.2 18 73 18Z" fill="#DBE3E5"/>
<path d="M77.0999 14.8V15.8C77.4999 15 78.1999 14.7 79.0999 14.7C79.4999 14.7 79.7999 14.8 80.0999 14.9C80.3999 15 80.5999 15.2 80.7999 15.4C80.9999 15.6 81.0999 15.8 81.1999 16.1C81.2999 16.4 81.2999 16.7 81.2999 17V21H80.2999V16.8C80.2999 16.4 80.1999 16.1 79.9999 15.9C79.7999 15.7 79.4999 15.6 79.0999 15.6C78.7999 15.6 78.4999 15.6 78.2999 15.7C78.0999 15.8 77.8999 15.9 77.6999 16.1C77.4999 16.3 77.3999 16.5 77.3999 16.7C77.2999 16.9 77.2999 17.2 77.2999 17.5V21H76.2999V14.8H77.0999Z" fill="#DBE3E5"/>
<path d="M87.6 21.1C87.3 21.1 87.1 21 87 20.9C86.8 20.8 86.8 20.5 86.8 20.2C86.5 20.5 86.2 20.8 85.8 20.9C85.4 21 85 21.1 84.6 21.1C84.3 21.1 84.1 21.1 83.8 21C83.6 20.9 83.3 20.8 83.1 20.7C82.9 20.6 82.8 20.4 82.7 20.2C82.6 20 82.5 19.7 82.5 19.4C82.5 19 82.6 18.8 82.7 18.5C82.8 18.3 83 18.1 83.2 18C83.4 17.9 83.6 17.8 83.9 17.7C84.2 17.6 84.4 17.6 84.7 17.5C85 17.4 85.2 17.4 85.5 17.4C85.8 17.4 86 17.3 86.2 17.3C86.4 17.2 86.5 17.2 86.7 17.1C86.8 17 86.9 16.9 86.9 16.7C86.9 16.5 86.9 16.3 86.8 16.2C86.7 16.1 86.6 16 86.5 15.9C86.4 15.8 86.2 15.8 86.1 15.8C85.9 15.8 85.8 15.8 85.6 15.8C85.2 15.8 84.8 15.9 84.5 16C84.2 16.2 84.1 16.5 84 16.9H83C83 16.5 83.1 16.2 83.2 15.9C83.3 15.6 83.5 15.4 83.8 15.3C84 15.1 84.3 15 84.6 14.9C84.9 14.8 85.2 14.8 85.6 14.8C85.9 14.8 86.2 14.8 86.4 14.9C86.7 14.9 86.9 15 87.1 15.1C87.3 15.2 87.5 15.4 87.6 15.6C87.7 15.8 87.8 16.1 87.8 16.5V19.7C87.8 19.9 87.8 20.1 87.8 20.2C87.8 20.3 87.9 20.4 88.1 20.4C88.2 20.4 88.3 20.4 88.4 20.3V21C88.1 21.1 87.9 21.1 87.6 21.1ZM86.1 18C85.9 18 85.7 18.1 85.5 18.1C85.3 18.1 85 18.2 84.8 18.2C84.6 18.2 84.4 18.3 84.2 18.4C84 18.5 83.9 18.6 83.8 18.7C83.7 18.8 83.6 19 83.6 19.3C83.6 19.5 83.6 19.6 83.7 19.7C83.8 19.8 83.9 19.9 84 20C84.1 20.1 84.2 20.1 84.4 20.2C84.5 20.2 84.7 20.2 84.8 20.2C85.1 20.2 85.4 20.2 85.7 20.1C85.9 20 86.1 19.9 86.3 19.8C86.5 19.7 86.6 19.5 86.6 19.3C86.7 19.1 86.7 19 86.7 18.8V17.8C86.5 17.9 86.3 18 86.1 18Z" fill="#DBE3E5"/>
<path d="M93.8 21V20.2C93.6 20.5 93.4 20.8 93 20.9C92.6 21.1 92.2 21.1 91.8 21.1C91.3 21.1 90.9 21 90.5 20.8C90.1 20.6 89.8 20.4 89.6 20.1C89.4 19.8 89.2 19.5 89.1 19.1C89 18.7 88.9 18.3 88.9 17.9C88.9 17.5 89 17 89.1 16.7C89.2 16.4 89.4 16 89.6 15.7C89.8 15.4 90.1 15.2 90.5 15C90.9 14.8 91.3 14.7 91.7 14.7C91.9 14.7 92 14.7 92.2 14.7C92.4 14.7 92.6 14.8 92.8 14.9C93 15 93.2 15.1 93.3 15.2C93.5 15.3 93.6 15.5 93.7 15.7V12.5H94.7V21H93.8ZM90.1 18.8C90.2 19.1 90.3 19.3 90.4 19.5C90.6 19.7 90.8 19.9 91 20C91.2 20.1 91.5 20.2 91.9 20.2C92.2 20.2 92.5 20.1 92.8 20C93 19.9 93.2 19.7 93.4 19.5C93.6 19.3 93.7 19 93.7 18.8C93.8 18.5 93.8 18.2 93.8 17.9C93.8 17.6 93.8 17.3 93.7 17C93.6 16.7 93.5 16.5 93.4 16.2C93.2 16 93 15.8 92.8 15.7C92.6 15.6 92.3 15.5 91.9 15.5C91.6 15.5 91.3 15.6 91 15.7C90.8 15.8 90.6 16 90.4 16.2C90.3 16.4 90.2 16.7 90.1 17C90 17.4 90 17.7 90 18C90 18.2 90 18.5 90.1 18.8Z" fill="#DBE3E5"/>
<path d="M101.1 21.1C100.8 21.1 100.6 21 100.5 20.9C100.3 20.8 100.3 20.5 100.3 20.2C100 20.5 99.7 20.8 99.3 20.9C98.9 21 98.5 21.1 98.1 21.1C97.8 21.1 97.6 21.1 97.3 21C97.1 20.9 96.8 20.8 96.6 20.7C96.4 20.6 96.3 20.4 96.2 20.2C96.1 20 96 19.7 96 19.4C96 19 96.1 18.8 96.2 18.5C96.3 18.3 96.5 18.1 96.7 18C96.9 17.9 97.1 17.8 97.4 17.7C97.7 17.6 97.9 17.6 98.2 17.5C98.5 17.4 98.7 17.4 99 17.4C99.3 17.4 99.5 17.3 99.7 17.3C99.9 17.2 100 17.2 100.2 17.1C100.3 17 100.4 16.9 100.4 16.7C100.4 16.5 100.4 16.3 100.3 16.2C100.2 16.1 100.1 16 100 15.9C99.9 15.8 99.7 15.8 99.6 15.8C99.4 15.8 99.3 15.8 99.1 15.8C98.7 15.8 98.3 15.9 98 16C97.7 16.2 97.6 16.5 97.5 16.9H96.5C96.5 16.5 96.6 16.2 96.7 15.9C96.8 15.6 97 15.4 97.3 15.3C97.5 15.1 97.8 15 98.1 14.9C98.4 14.8 98.7 14.8 99.1 14.8C99.4 14.8 99.7 14.8 99.9 14.9C100.2 14.9 100.4 15 100.6 15.1C100.8 15.2 101 15.4 101.1 15.6C101.2 15.8 101.3 16.1 101.3 16.5V19.7C101.3 19.9 101.3 20.1 101.3 20.2C101.3 20.3 101.4 20.4 101.6 20.4C101.7 20.4 101.8 20.4 101.9 20.3V21C101.7 21.1 101.4 21.1 101.1 21.1ZM99.7 18C99.5 18 99.3 18.1 99.1 18.1C98.9 18.1 98.6 18.2 98.4 18.2C98.2 18.2 98 18.3 97.8 18.4C97.6 18.5 97.5 18.6 97.4 18.7C97.3 18.8 97.2 19 97.2 19.3C97.2 19.5 97.2 19.6 97.3 19.7C97.4 19.8 97.5 19.9 97.6 20C97.7 20.1 97.8 20.1 98 20.2C98.1 20.2 98.3 20.2 98.4 20.2C98.7 20.2 99 20.2 99.3 20.1C99.5 20 99.7 19.9 99.9 19.8C100.1 19.7 100.2 19.5 100.2 19.3C100.3 19.1 100.3 19 100.3 18.8V17.8C100.1 17.9 99.9 18 99.7 18Z" fill="#DBE3E5"/>
<path d="M0.0999756 0.200012H10.3V21.1H0.0999756V0.200012Z" fill="#DBE3E5"/>
<path d="M33 0.200012H43.2V21.1H33V0.200012Z" fill="#DBE3E5"/>
<path d="M20.2 4.60004L21.7 1.60004L23.1 4.50004C23.3 4.80004 23.4 4.80004 23.7 4.60004L25 4.00004L24.2 8.00004C24 8.80004 24.5 9.00004 25 8.50004L26.8 6.60003L27.3 7.70004C27.5 8.00004 27.7 8.00004 28 7.90004L29.8 7.50004L29.2 9.80004C29.1 10.1 29 10.4 29.3 10.5L30 10.8L26.2 14C25.8 14.4 25.9 14.5 26.1 15L26.4 16.1L22.9 15.5C22.5 15.4 22.2 15.4 22.2 15.7L22.3 19.7H21.2L21.3 15.7C21.3 15.3 21 15.3 20.3 15.5L17 16.1L17.4 15C17.5 14.6 17.6 14.3 17.3 14L13.4 10.8L14.1 10.4C14.3 10.2 14.3 10.1 14.2 9.70004L13.5 7.30004L15.4 7.70004C15.9 7.80004 16.1 7.70004 16.2 7.40004L16.7 6.30004L18.5 8.40004C18.8 8.80004 19.3 8.50004 19.1 8.00004L18.2 3.70004L19.6 4.50004C19.9 4.70004 20.1 4.80004 20.2 4.60004Z" fill="#DBE3E5"/>
</svg>
